<svg xmlns="http://www.w3.org/2000/svg" width="84.06" height="77.36" viewBox="0 0 84.06 77.36">
  <defs>
    <style>
      .cls-1 {
        fill: #fff;
      }
    </style>
  </defs>
  <title>Asset 142</title>
  <g id="Layer_2" data-name="Layer 2">
    <g id="Layer_1-2" data-name="Layer 1">
      <g>
        <path class="cls-1" d="M78.55,6.12H53.22L52.64,4a.42.42,0,0,0-.13-.22c-.15-.16-.22-.21-9.68-.17,0,0,0,0,0-.07V3a1,1,0,0,0-.5-.85V.5a.5.5,0,0,0-.5-.5.5.5,0,0,0-.5.5V2.16a1,1,0,0,0-.5.85v.53s0,0,0,.08l-9.3.06a.51.51,0,0,0-.48.38l-.52,2.06h-25A5.51,5.51,0,0,0,0,11.62V71.85a5.51,5.51,0,0,0,5.51,5.51h73a5.51,5.51,0,0,0,5.51-5.51V11.62A5.51,5.51,0,0,0,78.55,6.12ZM32,4.68c7.32,0,17.82-.1,19.81-.06L52.9,8.75h-22Zm51.1,67.17a4.51,4.51,0,0,1-4.51,4.51h-73A4.51,4.51,0,0,1,1,71.85V11.62a4.51,4.51,0,0,1,4.51-4.5H30.3l-.52,2a.54.54,0,0,0,.09.44.51.51,0,0,0,.4.19H53.55a.49.49,0,0,0,.4-.2A.47.47,0,0,0,54,9.12l-.54-2H78.55a4.51,4.51,0,0,1,4.51,4.5Z"/>
        <polygon class="cls-1" points="71.8 67.12 71.21 67.12 70.72 68.74 71.31 68.74 71.8 67.12"/>
        <path class="cls-1" d="M76.68,69.07a3.73,3.73,0,0,0,1.12-2.52,4.22,4.22,0,0,1-1.6,2.14,6.09,6.09,0,0,0-2.51-.94l.19-.63h-.59s-.13.44-.17.56a6.58,6.58,0,0,0-1.34,0A8.13,8.13,0,0,1,75.7,69a11.9,11.9,0,0,1-6.43,1.52s4.52.69,7-1.13a9,9,0,0,1,2.12,2.28A5.85,5.85,0,0,0,76.68,69.07Z"/>
        <path class="cls-1" d="M73.4,68.74l.16-.55a7.06,7.06,0,0,0-1.82-.37l-.1.32H73c0,.11-.18.6-.18.6Z"/>
      </g>
    </g>
  </g>
</svg>
