<svg xmlns="http://www.w3.org/2000/svg" width="91.06" height="66.25" viewBox="0 0 91.06 66.25">
  <defs>
    <style>
      .cls-1 {
        fill: #fff;
      }
    </style>
  </defs>
  <title>Asset 141</title>
  <g id="Layer_2" data-name="Layer 2">
    <g id="Layer_1-2" data-name="Layer 1">
      <g>
        <path class="cls-1" d="M83.31,0H7.75A7.75,7.75,0,0,0,0,7.74V58.5a7.76,7.76,0,0,0,7.75,7.75H83.31a7.76,7.76,0,0,0,7.75-7.75V7.74A7.75,7.75,0,0,0,83.31,0Zm6.75,58.5a6.76,6.76,0,0,1-6.75,6.75H7.75A6.76,6.76,0,0,1,1,58.5V7.74A6.76,6.76,0,0,1,7.75,1H83.31a6.76,6.76,0,0,1,6.75,6.74Z"/>
        <path class="cls-1" d="M68.92,54.82h-.76s-.07.23-.09.27l-1.19.68-.76-.65.09-.3h-.77l-.15.52s1,.89,1.08.94l-.2.64h.77s.17-.57.19-.62l1.63-.93Z"/>
        <path class="cls-1" d="M72.65,56.07l-.26.85h3.48l.17-.55H73.39l1.17-.49-.91-.51h2.68l.17-.55H73l-.25.83.38.21Z"/>
        <polygon class="cls-1" points="61.66 54.82 61.03 56.92 61.79 56.92 62.42 54.82 61.66 54.82"/>
        <path class="cls-1" d="M64.37,54.82s-.21.7-.24.77H62.39l-.17.56H64c0,.14-.24.77-.24.77h.77l.63-2.1h-.76Z"/>
        <path class="cls-1" d="M72.67,54.82H69.19l-.63,2.1h.76l.47-1.55h1.95s0,.14-.06.18l-.65.27H69.85l-.16.56h1.46l1.2-.51Z"/>
        <path class="cls-1" d="M76.44,56.22l-.21.7H77l.16-.53C76.93,56.32,76.69,56.27,76.44,56.22Z"/>
        <path class="cls-1" d="M81.54,57.64A4.87,4.87,0,0,0,83,54.37a5.56,5.56,0,0,1-2.08,2.78,7.36,7.36,0,0,0-1.81-.88L80,55.9l.32-1.08H76.86l-.3,1a8,8,0,0,0-1.4.06,10.78,10.78,0,0,1,5.1,1.72c-1.64,1-4.25,1.95-8.37,2,0,0,5.89.89,9.1-1.47a11.76,11.76,0,0,1,2.76,3A7.63,7.63,0,0,0,81.54,57.64Zm-4.08-2.27h2c0,.08,0,.17-.06.2l-.6.25H77.33C77.36,55.73,77.45,55.43,77.46,55.37Z"/>
      </g>
    </g>
  </g>
</svg>
