<svg xmlns="http://www.w3.org/2000/svg" width="44.7" height="107.58" viewBox="0 0 44.7 107.58"><defs><style>.cls-1{fill:#fff;}</style></defs><g id="Layer_2" data-name="Layer 2"><g id="Layer_1-2" data-name="Layer 1"><path class="cls-1" d="M43.48,56.42A1.22,1.22,0,0,0,44.7,55.2v-.63a1.22,1.22,0,0,0-1.22-1.22H40.7l-5.57-3.91h.35a1.23,1.23,0,0,0,1.22-1.23V45.57a1.22,1.22,0,0,0-1.22-1.22h-1V4.15a3.75,3.75,0,0,0-1-2.54A4.63,4.63,0,0,0,30.17.39a81.24,81.24,0,0,0-15.76,0,4.19,4.19,0,0,0-4,4.18V44.35H9.23A1.23,1.23,0,0,0,8,45.57v2.64a1.23,1.23,0,0,0,1.23,1.23h.49L3.88,53.35H1.23A1.23,1.23,0,0,0,0,54.57v.63a1.23,1.23,0,0,0,1.23,1.22h3l.12,4.93H1.23A1.23,1.23,0,0,0,0,62.57v.63a1.23,1.23,0,0,0,1.23,1.22H4l.05.06,5.39,3.87H9.23A1.23,1.23,0,0,0,8,69.57v2.64a1.23,1.23,0,0,0,1.23,1.23h1.15v9.49l0,.23c.05.09.09.18.39.26a6,6,0,0,0,1.15,4,2.89,2.89,0,0,0,2.19.9h3.58v12.86c-4,.06-7.63.18-10.58.37C.49,102,.37,102.45.37,103h0l0,2.78c0,.52,0,1,6.79,1.44,4.08.26,9.51.4,15.29.4s11.2-.14,15.29-.4c6.79-.42,6.79-.92,6.79-1.43l.05-2.73h0v0c0-.53,0-1-6.79-1.44-3-.19-6.64-.31-10.64-.37V88.32h3.19a3.7,3.7,0,0,0,2.58-1,5.19,5.19,0,0,0,1.23-3.93s0,0,0,0l0,0v0c.3-.11.35-.22.39-.33l0-.08V73.44h1a1.23,1.23,0,0,0,1.22-1.23V69.57a1.22,1.22,0,0,0-1.22-1.22h-.13l5.23-3.93h2.9A1.22,1.22,0,0,0,44.7,63.2v-.63a1.22,1.22,0,0,0-1.22-1.22h-3l.12-4.93ZM39,53.35H34.52V50.23ZM11.38,6.92V4.57c0-2.89,3-3.17,3.12-3.19a80.57,80.57,0,0,1,15.62,0,3.59,3.59,0,0,1,2.68.9,2.73,2.73,0,0,1,.72,1.84V44.35H11.38ZM9.23,48.44A.23.23,0,0,1,9,48.21V45.57a.22.22,0,0,1,.23-.22H35.48a.22.22,0,0,1,.22.22v2.64a.23.23,0,0,1-.22.23H9.23Zm24.29,1.05v3.86H11.38V49.53l.08-.09h22Zm-23.14.71v3.15H5.68ZM5.67,64.42h4.71V67.8ZM43.48,105.5c-1.24.47-8.89,1.08-21.08,1.08S2.58,106,1.32,105.51v-1.73a36.17,36.17,0,0,0,5.84.66c4.08.25,9.51.39,15.29.39s11.2-.14,15.29-.39a37.39,37.39,0,0,0,5.77-.64Zm-1-2.51a169.68,169.68,0,0,1-20,.84,169.9,169.9,0,0,1-20-.84,169.9,169.9,0,0,1,20-.84A169.68,169.68,0,0,1,42.45,103Zm-23.71-1.82V88.32H26.1v12.8Q23.75,101.12,18.74,101.17ZM32.18,86.56a2.72,2.72,0,0,1-1.87.76H14.16a1.86,1.86,0,0,1-1.45-.59,4.92,4.92,0,0,1-.9-3.15c1.41.15,4.35.28,10.56.4,6.3-.07,9.29-.22,10.73-.41A4,4,0,0,1,32.18,86.56Zm1.34-4c-1.33.25-7.14.42-11.15.46-7.86-.15-10.27-.34-11-.44v-9.1H33.52Zm2-13.17a.22.22,0,0,1,.22.22v2.64a.23.23,0,0,1-.22.23H9.23A.23.23,0,0,1,9,72.21V69.57a.22.22,0,0,1,.23-.22H35.48Zm-24.1-1V64.42H33.52v3.93Zm23.14-.63v-3.3h4.39Zm9-5.37a.22.22,0,0,1,.22.22v.63a.22.22,0,0,1-.22.22H1.23A.22.22,0,0,1,1,63.2v-.63a.22.22,0,0,1,.23-.22H43.48ZM5.77,56.42h4.61v4.93H5.89Zm5.61,4.93V56.42H33.52v4.93Zm23.14-4.93h4.67l-.12,4.93H34.52Zm0-1H1.23A.22.22,0,0,1,1,55.2v-.63a.22.22,0,0,1,.23-.22H43.48a.22.22,0,0,1,.22.22v.63a.22.22,0,0,1-.22.22Z"/></g></g></svg>