<svg xmlns="http://www.w3.org/2000/svg" width="44.21" height="104.16" viewBox="0 0 44.21 104.16"><defs><style>.cls-1{fill:#fff;}</style></defs><g id="Layer_2" data-name="Layer 2"><g id="Layer_1-2" data-name="Layer 1"><path class="cls-1" d="M44.21,99.61v0c0-.53,0-1-6.79-1.45-2.73-.17-6.08-.28-9.72-.34V78.5c8.64-1,9.19-9.76,9.2-9.87l0-6.83h2.4l.14-.26a9.77,9.77,0,0,0,0-8.88l-.15-.26H37.17V42.22A6.84,6.84,0,0,1,39,38.48l.11-.16a2.64,2.64,0,0,0,.09-2.57A2,2,0,0,0,38,35V9.88C38,1.25,29.5.59,29.41.59h0C23.59-.71,15,.53,14.65.59,5.48,1.63,6,9.34,6,9.38l-.1,25.68a2.29,2.29,0,0,0-1.22,1.42,2.54,2.54,0,0,0,.44,2,6.2,6.2,0,0,1,1.58,3.78v10.1H4.49l-.13.29a9.71,9.71,0,0,0,.06,8.92l.15.23H7L7,69c.86,6.8,7,8.89,9.13,9.41a.42.42,0,0,0,.28.14l-.12,19.23s0,0,0,.05c-3.55.06-6.81.18-9.48.34C.17,98.55.05,99,.05,99.55l0,2.77c0,.53,0,1,6.79,1.45,4.08.25,9.51.39,15.29.39s11.2-.14,15.29-.39c6.79-.42,6.79-.92,6.79-1.44l.05-2.72Zm-29.43-98c.09,0,8.77-1.28,14.49,0,.32,0,7.73.58,7.73,8.3v25c-11.32-1.66-26-.6-30.09,0L7,9.34C7,9.06,6.57,2.51,14.78,1.58ZM5.92,37.87a1.53,1.53,0,0,1-.26-1.14,1.18,1.18,0,0,1,.48-.63A.51.51,0,0,0,6.36,36c1.3-.35,18.65-2.14,31.72.07h.13a.69.69,0,0,1,.19.19,1.78,1.78,0,0,1-.14,1.54,8,8,0,0,0-.95,1.22l-.08,0H6.81l-.08,0A9.32,9.32,0,0,0,5.92,37.87ZM7.22,40h9.12a.46.46,0,0,0,.11.37l2.06,2.45H25l2.42-2.42a.5.5,0,0,0,.14-.4h9.19a6.8,6.8,0,0,0-.6,2.13V52.36H7.71V42.29A5.9,5.9,0,0,0,7.22,40Zm10.23,0h9l-1.81,1.82H19ZM7.44,60.8H5.14a8.84,8.84,0,0,1,0-7.44h31v0h2.59a8.91,8.91,0,0,1,0,7.4H7.44ZM8,68.89,8,61.8h28l0,6.8c0,.34-.54,8.28-8.73,8.94H17C16.65,77.48,8.93,76.15,8,68.89Zm9.3,28.85.12-19.21H26.7V97.7l-9.28.07H17.3S17.31,97.75,17.31,97.74Zm4.82,1a170,170,0,0,1,20,.84,170,170,0,0,1-20,.84,170,170,0,0,1-20-.84A170,170,0,0,1,22.13,98.74Zm21,3.35c-1.24.47-8.89,1.07-21.08,1.07S2.26,102.56,1,102.1v-1.73a36.17,36.17,0,0,0,5.84.66c4.09.25,9.52.39,15.29.39s11.2-.14,15.29-.39a37.39,37.39,0,0,0,5.77-.64Z"/><path class="cls-1" d="M18.42,97.76l7.36-.06Z"/></g></g></svg>