<svg xmlns="http://www.w3.org/2000/svg" width="152.15" height="76.31" viewBox="0 0 152.15 76.31">
  <defs>
    <style>
      .cls-1 {
        fill: #fff;
      }
    </style>
  </defs>
  <path class="cls-1" d="M150.49,57.55l-6.89-2a2.27,2.27,0,0,0-1.87.3l-2.59-.74h0l-1.06-.3a1.24,1.24,0,0,0-1.63.56,21.84,21.84,0,0,0-11.25-1.25,22.26,22.26,0,0,0,8.4-7.52,1.29,1.29,0,0,0,.56.15,1.4,1.4,0,0,0,1.1-.65l2.45-3.1h0a2.53,2.53,0,0,0,1.72-1l4.08-5.16a2.58,2.58,0,0,0-.42-3.62l-.77-.61a2.58,2.58,0,0,0-3.62.42l-4.08,5.17a2.57,2.57,0,0,0-.53,1.89.07.07,0,0,0,0,0l-2.46,3.11a1.31,1.31,0,0,0-.31,1.36c-2.95,5.12-10.13,8.3-12.5,9.35-.38.16-.63.28-.8.37a1.78,1.78,0,0,0-1,0l-4.61,1.49a1.15,1.15,0,0,0-.68.58,1.33,1.33,0,0,0-.13.43l-9.89,3.2a1.19,1.19,0,0,0-.44-.3,1.73,1.73,0,0,0-1.09,0l-5.76,1.8a2.26,2.26,0,0,0-1.7-.18l-7.73,2.24a1.42,1.42,0,0,0-1,1.6l-2.44.78a.5.5,0,0,0-.32.63l0,.08-5.27,1.7a.59.59,0,0,0-.17.1l-1.18,1a.49.49,0,0,0-.15.52l.23.69a.5.5,0,0,0,.42.34l1.57.15h0a.4.4,0,0,0,.15,0l5.27-1.7,0,.07a.51.51,0,0,0,.48.35.4.4,0,0,0,.15,0l2.48-.8a1.4,1.4,0,0,0,1,.44,1.32,1.32,0,0,0,.39-.06l7.74-2.24A2.25,2.25,0,0,0,96,66.06l5.68-1.84c.73-.23,1-.63,1.07-1L113,59.89l.1.06a1.89,1.89,0,0,0,.84.2,1.77,1.77,0,0,0,.56-.09L119,58.62a1.29,1.29,0,0,0,.71-.56c2.46-.62,10.38-2.31,16.08.21a1.26,1.26,0,0,0,.15.38,1.59,1.59,0,0,0,.92.57l2.27.65h0l1.38.39c0,.05,0,.1.07.15a2.25,2.25,0,0,0,1.37,1.08l6.89,2a2.57,2.57,0,0,0,.62.08,2.3,2.3,0,0,0,1.11-.29,2.26,2.26,0,0,0,1.09-1.37l.42-1.5A2.28,2.28,0,0,0,150.49,57.55ZM76.78,70.4l-1.13-.11,0-.06.85-.76,5.17-1.67.3.93Zm58.67-31.5,4.09-5.17a1.58,1.58,0,0,1,2.21-.25l.77.61a1.53,1.53,0,0,1,.58,1,1.56,1.56,0,0,1-.32,1.16l-4.08,5.16a1.57,1.57,0,0,1-2.21.26l-.78-.61a1.59,1.59,0,0,1-.26-2.21Zm-3,5.05.84-1.07.09.07a.9.9,0,0,0,1.12-1.42l-.08-.07.11-.15a3,3,0,0,0,.53.59l.78.6a2.36,2.36,0,0,0,.69.39l-.78,1-.26-.2a.9.9,0,0,0-1.27.15.88.88,0,0,0-.19.66.92.92,0,0,0,.34.61l.26.2-.18.23c-.18.23-.28.26-.3.27a.47.47,0,0,1-.26-.12l-1.45-1.15c-.11-.09-.18-.17-.18-.22S132.3,44.17,132.48,44ZM132,45.56l.73.57c-2.7,4.49-7.86,7.26-11.08,8.63-1,.23-1.84.46-2.37.62a1.52,1.52,0,0,0-.22-.34l.2-.09C121.68,53.89,128.81,50.74,132,45.56ZM82.43,66.94l1.91-.62.59,2.05-1.85.6Zm11.81-.49L86.5,68.69a.4.4,0,0,1-.32,0l0,0a.37.37,0,0,0,0-.11l-1-3,0,0-.07-.24a.41.41,0,0,1,.28-.52l7.74-2.24a1.49,1.49,0,0,1,.36,0,1.29,1.29,0,0,1,1.23.93l.44,1.5A1.29,1.29,0,0,1,94.24,66.45Zm7.12-3.18-1.14.37-.58-1.8-1,.31.59,1.8-1.11.36-.58-1.8-1,.31.58,1.8L96.15,65c0-.12,0-.25-.07-.38l-.44-1.5a2.36,2.36,0,0,0-.28-.6l5.22-1.63a.71.71,0,0,1,.45-.05.33.33,0,0,1,.15.22l.57,1.76C101.81,63,101.85,63.11,101.36,63.27Zm1.25-1.06-.08-.26-.29-.89,9.66-3.13.38,1.15Zm11.61-3.1a.81.81,0,0,1-.63,0,.85.85,0,0,1-.42-.49l-.47-1.46a.13.13,0,0,1,0-.13.16.16,0,0,1,.09-.09l4.62-1.49a.73.73,0,0,1,.25,0,.77.77,0,0,1,.4.11l.43.55.15.45c0,.27.09.62.17,1.08a.32.32,0,0,1-.14.12Zm14.16-3.18A38.12,38.12,0,0,0,119.86,57a.09.09,0,0,1,0-.05l-.12-.36c.5-.17,1.28-.45,2.27-.87,3.43-.77,9.17-1.5,13.94.56l-.14.92A20,20,0,0,0,128.38,55.93Zm11.78,3.2,0-.11a.88.88,0,0,0-.08-.69.93.93,0,0,0-.54-.43.91.91,0,0,0-1.12.62l0,.11-1.31-.37c-.27-.08-.34-.15-.36-.18s0-.14,0-.28l.5-1.77c.07-.26.09-.34.53-.22l.29.08-.09.32a.91.91,0,0,0,1.74.5l.09-.32,1.14.32a2.11,2.11,0,0,0-.19.46l-.43,1.5a2.78,2.78,0,0,0-.08.49Zm10.94,1-.42,1.51a1.28,1.28,0,0,1-.62.77,1.22,1.22,0,0,1-1,.11l-6.89-1.95a1.27,1.27,0,0,1-.77-.61,1.29,1.29,0,0,1-.12-1l.43-1.5a1.27,1.27,0,0,1,.61-.77,1.28,1.28,0,0,1,.63-.16,1.45,1.45,0,0,1,.35,0l6.89,2A1.27,1.27,0,0,1,151.1,60.09Z"/>
  <path class="cls-1" d="M56.51,31.17a2.3,2.3,0,0,0,1.28,1.19,2.23,2.23,0,0,0,1.75-.06l6.52-2.95a2.27,2.27,0,0,0,1.19-1.28.74.74,0,0,0,0-.14l1.31-.61h0l2.16-1c.91-.42,1-1,.87-1.51,3.15-2,7.14-2.54,10.35-2.6a3.93,3.93,0,0,0,1,3.35,4.42,4.42,0,0,0,.86.73c0,.11,0,.22,0,.33a2,2,0,0,0,0,.24,5,5,0,0,0,.16.64,1,1,0,0,0,.06.16,5.38,5.38,0,0,0,.2.51l.12.21a5.05,5.05,0,0,0,.25.45l.14.22.32.43.17.21c.13.15.26.3.4.44l.17.19c.21.2.42.4.66.59,2.43,2,7,2.15,13.71.39a70.06,70.06,0,0,0,8.29-2.81,7,7,0,0,0,.32.75,1.27,1.27,0,0,0,1.72.57,1.23,1.23,0,0,0,.64-.74.64.64,0,0,0,0-.07l2.53,1c2.33.92,4.72,1.87,6.93,2.58l-.2.15c-.17.13-.34.26-.52.38l-.34.22-.5.32-.38.21-.5.27-.42.2-.49.23-.46.18-.5.19-.51.16-.47.14-.63.15-.39.09c-.34.06-.69.12-1,.16a1.33,1.33,0,0,0-1.49-.68l-5.9.49-.1-.1a2.27,2.27,0,0,0-1.67-.54L97,35.45a2.25,2.25,0,0,0-1.55.8,2.71,2.71,0,0,0-.24.35l-2.93.26a.5.5,0,0,0-.46.54v.07l-5.52.47a.66.66,0,0,0-.2.06l-1.38.75a.53.53,0,0,0-.26.48l.06.72a.5.5,0,0,0,.34.43l1.49.5a.45.45,0,0,0,.16,0h0l5.52-.47v.07a.5.5,0,0,0,.5.46h0l2.93-.25a2.91,2.91,0,0,0,.3.31,2.27,2.27,0,0,0,1.47.53h.19l7.17-.62a2.26,2.26,0,0,0,1.67-1l5.86-.46a1.66,1.66,0,0,0,1-.37,1.25,1.25,0,0,0,.38-.91h0c.52-.07,1-.16,1.52-.26l.55-.13c.28-.08.57-.15.85-.24l.64-.2.63-.24.69-.27,0,0a16.72,16.72,0,0,0,1.89-1l.24-.14.71-.47.32-.22.62-.47.31-.25.57-.49.27-.24c0-.06.12-.11.17-.16l.34.07c0,.09-.06.19-.1.28a14.84,14.84,0,0,1-11.43,8.7A1.14,1.14,0,0,0,112,42a1.74,1.74,0,0,0-1.08-.16l-5.89.75a2.29,2.29,0,0,0-1.78-.53l-8,1a1.41,1.41,0,0,0-1.21,1.17l-2.59.34a.53.53,0,0,0-.33.19.55.55,0,0,0-.1.37v.08l-5.49.72a.62.62,0,0,0-.19.07L84,46.83a.5.5,0,0,0-.24.49l.1.71a.47.47,0,0,0,.35.41l1.52.44.13,0H86l5.49-.73v.08a.53.53,0,0,0,.19.33.5.5,0,0,0,.31.1H92l2.61-.35a1.34,1.34,0,0,0,.4.54,1.42,1.42,0,0,0,.86.29h.19l8-1a2.27,2.27,0,0,0,1.6-1l5.86-.76a1.74,1.74,0,0,0,1-.42,1.27,1.27,0,0,0,.33-.92,17.43,17.43,0,0,0,13.38-10.24c.13-.31.24-.63.34-.94a5,5,0,0,0,2.08-.43,3,3,0,0,0,1.59-1.9,4.27,4.27,0,0,0-.52-3.72l-.1-.15a4.31,4.31,0,0,0,1-.73,3,3,0,0,0,.92-2.57,4.84,4.84,0,0,0-1.85-3.44,6.06,6.06,0,0,0-2.28-1,1.74,1.74,0,0,0-.11-.18l-.12-.21a7,7,0,0,0-.59-.84,5.14,5.14,0,0,0-.38-.42,1.62,1.62,0,0,0-.19-.18l-.21-.2-.27-.21-.15-.11c-.11-.08-.23-.15-.35-.22L125,17.2c-.13-.08-.27-.15-.41-.22l0,0-.47-.19h0c-3.39-1.21-8,.49-11.61,2.41h0l-.47.25-.08,0-.4.22-.13.08L111,20l-.18.1-.2.12a1.28,1.28,0,0,0-2.53-.31.64.64,0,0,0,0,.09C101.65,18.06,90,14.65,84.7,18c-4.41-1.45-9-3.55-10.88-6.37a1.14,1.14,0,0,0,.2-.8,1.59,1.59,0,0,0-.54-.93L71.75,8.25h0l-1-1a.53.53,0,0,0,0-.13A2.25,2.25,0,0,0,70,5.51L64.77.62a2.28,2.28,0,0,0-3.23.1L60.47,1.86a2.31,2.31,0,0,0,.1,3.23L65.8,10a2.28,2.28,0,0,0,1.56.61h.18l1.89,1.7h0l1,.89a1.48,1.48,0,0,0,1,.48,1.25,1.25,0,0,0,.83-.35c2.65,3.19,7,5.29,10.74,6.61l-.08.11c-3.73-.14-8.42.3-12.21,2.64a1.18,1.18,0,0,0-.72-.61,1.51,1.51,0,0,0-1.07.15l-1,.45h0L65.48,23.8a2.29,2.29,0,0,0-2,0l-6.53,3a2.28,2.28,0,0,0-1.13,3ZM86.62,39.9l-1.08-.36v-.06l1-.55L92,38.47l.08,1Zm-.69,8-1.09-.32v-.06l1-.59,5.39-.71.13,1ZM110.47,26c0-.24-.08-.47-.11-.7L117,26.37C114.73,26.29,112.24,26.16,110.47,26Zm3.63,3.25-3-1.16c-.06-.13-.12-.26-.17-.39a1.42,1.42,0,0,1-.08-.18l-.17-.48c0-.05,0-.09,0-.14v0c3.85.37,11,.53,12,.44l2.37-.2c-.13.3-.27.6-.43.9a55.07,55.07,0,0,1-8.72.13L113.28,28l2.45,1c2.07.82,4.41,1.7,6.49,2.32-.23.24-.48.47-.73.69C119.18,31.24,116.6,30.22,114.1,29.23Zm10-.31a.25.25,0,0,1,0,.07c-.16.24-.32.48-.5.72l0,.06c-.2.27-.41.53-.63.79l0,0c-1.39-.4-2.93-.94-4.43-1.5A52.19,52.19,0,0,0,124.09,28.92Zm-31,11-.18-2.12,2-.18,0,.29h0l.07.78.09,1.06Zm11.56,0-7.16.61a1.29,1.29,0,0,1-1.39-1.17L96,38.61,96,37.83a1.29,1.29,0,0,1,1.17-1.39l7.16-.61a1.28,1.28,0,0,1,.93.3,1.25,1.25,0,0,1,.46.87l.13,1.56A1.28,1.28,0,0,1,104.64,40Zm8-1.57a.76.76,0,0,1-.43.13l-5.38.42a2.34,2.34,0,0,0,0-.46l-.14-1.55a2.11,2.11,0,0,0-.1-.5l1-.08.16,1.89,1-.09-.16-1.89,1.16-.09.16,1.88,1-.08-.16-1.89L112,36a.76.76,0,0,1,.45.05.33.33,0,0,1,.1.26l.15,1.83C112.68,38.25,112.66,38.34,112.61,38.38ZM92.39,47.62l-.28-2.11,2-.27.28,2.11Zm11.54-.51-8,1a.48.48,0,0,1-.31-.08.4.4,0,0,1-.16-.28l-.43-3.27a.42.42,0,0,1,.36-.47l8-1.05a1.27,1.27,0,0,1,1.44,1.1l.21,1.55A1.29,1.29,0,0,1,103.93,47.11Zm7.89-1.93a.76.76,0,0,1-.42.14L106,46a2.6,2.6,0,0,0,0-.48l-.2-1.55a2.85,2.85,0,0,0-.14-.5l1-.13.25,1.89,1-.13-.25-1.89,1.16-.15.25,1.89,1-.13L109.87,43l1.19-.15a.77.77,0,0,1,.45,0c.06,0,.09.12.11.26l.24,1.82C111.88,45,111.87,45.13,111.82,45.18ZM125.5,34.43a16.6,16.6,0,0,1-12.72,9.75l-.12-.9a15.65,15.65,0,0,0,12-9.19c.06-.15.11-.3.16-.44.32,0,.62.08.91.1C125.65,34,125.59,34.21,125.5,34.43Zm2.86-10.82a4.82,4.82,0,0,0,0-.54,2.44,2.44,0,0,1,.67,1.52v.15a.48.48,0,0,1-.18.29,2.23,2.23,0,0,1-.62.42.22.22,0,0,0,0-.08c0-.17,0-.34.06-.51s.06-.49.07-.73S128.36,23.78,128.36,23.61Zm1.08,2a1.29,1.29,0,0,0,.43-1.15,3.16,3.16,0,0,0-1.19-2.27,2.45,2.45,0,0,0-.5-.3,7.7,7.7,0,0,0-.3-1.07,4.35,4.35,0,0,1,1.32.69,4,4,0,0,1,1.52,2.85,2.65,2.65,0,0,1,0,.63,2.3,2.3,0,0,1-.66,1.23,4.41,4.41,0,0,1-1.28.81l-.57.25.43.44a3.64,3.64,0,0,1,.4.48,3.42,3.42,0,0,1,.39,3,2.12,2.12,0,0,1-1.14,1.36,6.48,6.48,0,0,1-3.9.12c.23-.25.45-.5.67-.76a5,5,0,0,0,2.85-.13,1.29,1.29,0,0,0,.7-.83,2.57,2.57,0,0,0-.28-2.27h0a3.62,3.62,0,0,0-.82-.78.05.05,0,0,1,0,0,13.26,13.26,0,0,0,.47-1.43A3.79,3.79,0,0,0,129.44,25.64Zm-3.78,5.54a2.14,2.14,0,0,1,.13-.19c.2-.28.39-.56.56-.84l.21-.34c.21-.36.41-.72.59-1.09h0a2.36,2.36,0,0,1,.47.48,1.74,1.74,0,0,1,.16,1.55.43.43,0,0,1-.26.3A3.42,3.42,0,0,1,125.66,31.18Zm-15.2-9.88,0,0,.17-.1.19-.11.2-.12.17-.1.26-.15.13-.07.32-.19.09,0c.12-.08.26-.15.39-.22h0c3.47-1.87,8.64-4,12-2.29h0l.41.23.07.06.33.23.14.13.23.21a4.49,4.49,0,0,1,.36.39,6.48,6.48,0,0,1,.53.76l.13.23a7.15,7.15,0,0,1,.83,2.65c0,.09,0,.18,0,.27,0,.32,0,.65,0,1v.05a10.14,10.14,0,0,1-.11,1.08l-.06.27a11.28,11.28,0,0,1-.62,2.15l-.23.53c-.08.16-.15.32-.23.47s-.13.25-.19.37-.17.3-.26.45-.14.24-.22.36l-.3.47-.23.33-.38.49a15.7,15.7,0,0,1-1.56,1.74l-.44.4c-.1.1-.21.19-.32.28s-.32.27-.49.41l-.38.29-.51.37-.45.3-.52.32-.53.31c-.27.15-.56.29-.86.44l-.7.3-.66.27-.57.19c-.26.09-.52.16-.79.24l-.52.13c-.45.11-.91.21-1.39.28h0l-.07-.54,0-.31c.38-.06.75-.13,1.12-.21l.3-.08.78-.2.42-.14.63-.22.24-.1a16.6,16.6,0,0,0,2.35-1.17l.28-.17.54-.37.34-.23.48-.37.36-.29.17-.14.58-.51h0c.24-.23.47-.47.7-.71h0l.17-.2.24-.28.17-.2.4-.51.15-.2c.13-.17.24-.34.36-.51l.15-.22c.1-.16.2-.32.29-.48s.11-.18.15-.26l0-.08.4-.73h0c.1-.21.19-.42.28-.63s0-.16.08-.23h.1L126,27c.08-.22.16-.45.23-.67h0l.11-.43c0-.12,0-.23.07-.35s.09-.41.12-.61,0-.32,0-.48,0-.4,0-.6,0-.29,0-.44a5.87,5.87,0,0,0,0-.59l-.06-.42c0-.19-.08-.37-.13-.55a1.68,1.68,0,0,0-.06-.24l-.09-.27h0a5.65,5.65,0,0,0-.95-1.67c-2.8-3.43-9.14-.72-13.56,1.83l-.46.24h0c-.35.2-.67.4-1,.6C110.37,21.94,110.41,21.59,110.46,21.3Zm7.62-.25a40.48,40.48,0,0,1,6.69-.63,4.77,4.77,0,0,1,.5.84,40.37,40.37,0,0,0-7.07.64,39.3,39.3,0,0,1-6.49.61c.47-.29,1-.58,1.56-.89C114.75,21.54,116.43,21.29,118.08,21.05Zm-2.59-.5c3-1.37,6.3-2.26,8.26-1a49.69,49.69,0,0,0-5.81.63Zm2.85,2.19a36.83,36.83,0,0,1,7.25-.6c0,.05,0,.1,0,.15l.06.27a4.51,4.51,0,0,1,.07.53,2.64,2.64,0,0,1,0,.29c0,.18,0,.36,0,.55s0,.19,0,.29,0,.41-.07.61a2.51,2.51,0,0,0,0,.27s0,.09,0,.14a11.75,11.75,0,0,0-2-.37l-9.47-1.59C115.5,23.16,116.9,23,118.34,22.74Zm-8.07.75,13.26,2.22h0a11.61,11.61,0,0,1,1.85.35q-.12.39-.27.78l-14.87-2.46a.13.13,0,0,1,0-.06c0-.24,0-.47,0-.7Zm-1.71-.4c0-.16,0-.32,0-.48,0-.7.13-1.29.19-1.69l.1-.5a2.43,2.43,0,0,1,.07-.33.43.43,0,0,1,.84.17v0s0,.07,0,.15h0l0,.3a16.19,16.19,0,0,0-.27,2.55l0,0h0a15.57,15.57,0,0,0,.06,1.78h0c0,.18,0,.36.07.54h0l.16.75v0l.06.24c0,.14.06.27.1.4s0,.15.07.23.09.28.14.41l.09.21a2.52,2.52,0,0,0,.14.33,2.29,2.29,0,0,1,.1.23l0,.08a.41.41,0,0,1,0,.27.44.44,0,0,1-.21.25.44.44,0,0,1-.58-.19,7.71,7.71,0,0,1-.45-1.08,9.5,9.5,0,0,1-.28-.95.36.36,0,0,1,0-.11,10.31,10.31,0,0,1-.2-1.05.88.88,0,0,0,0-.17v-.09c-.05-.37-.07-.74-.09-1.1s0-.48,0-.72S108.55,23.26,108.56,23.09Zm-24-4c0-.05.11-.08.17-.13,2.38.78,4.69,1.36,6.53,1.77L90.07,21a7.78,7.78,0,0,0-1-.28c-1-.25-2.76-.69-4.76-1.35l.08-.07Zm4.74.06c3.7-.35,8.86.72,13.15,1.85-1.54-.18-3-.31-4.34-.39ZM87,21.43l-.07.08c-.48-.06-1.15-.14-2-.19,0-.05,0-.1.07-.14C85.76,21.25,86.43,21.34,87,21.43Zm-2.9-.34-.09.18c-.28,0-.58,0-.89,0,0-.07.06-.13.08-.2Zm.09,3.36a4.41,4.41,0,0,0-.27.85A2.87,2.87,0,0,1,83.6,25a3.12,3.12,0,0,1-.77-2.67l0-.1.86,0s0,0,0,.06a.68.68,0,0,1,0,.14,2.27,2.27,0,0,0,.53,1.95Zm.35-1.87c0-.1,0-.19.07-.28.53,0,1,.07,1.42.11a5.52,5.52,0,0,0-1.26,1.13l-.07.09A1.55,1.55,0,0,1,84.53,22.58Zm23.58,4.63c0,.17.08.34.13.51A69.68,69.68,0,0,1,100,30.5c-6.38,1.69-10.73,1.62-13-.22-.23-.19-.45-.4-.65-.6l-.13-.14c-.17-.18-.34-.37-.49-.56l0-.06A4.05,4.05,0,0,1,85,24.81c0-.07.07-.15.12-.23v0l0,0c.74-1.26,2.36-2.16,4.83-2.65l1.24-.25A37,37,0,0,1,98,21.49l.22,0c1.78.1,3.62.28,5.6.54l.49.07.59.08q1.36.2,2.85.45a1.77,1.77,0,0,0,0,.23c0,.21,0,.41,0,.63a91,91,0,0,0-9.64-1.15h0l-1.39-.06h-.15c-.91,0-1.75,0-2.51,0h-.09l-1,.06h-.08c-5.13.37-6.62,1.89-7,2.8a2.05,2.05,0,0,0-.18.58,2.57,2.57,0,0,0,0,.48h-.05l.08.24a5.49,5.49,0,0,0,2.07,3.16c3.92,3.26,15.43-.8,18.86-2.13l1.53-.58C108.05,27,108.08,27.11,108.11,27.21Zm-.38-2.37,0,.32-.62-.12a40.59,40.59,0,0,0-7.43.08c-4,.24-9.3.56-12.52-.26a5.73,5.73,0,0,1,2.38-1.14,24.35,24.35,0,0,1,6.31-.57H96l1,0h.22l.84,0ZM86.9,27.49c3.5.76,8.3.47,13,.19,1.5-.08,2.95-.17,4.19-.2C97.7,29.69,90.73,31.07,88.19,29A5.69,5.69,0,0,1,86.9,27.49ZM108,26.82l-1.62-.15a52.35,52.35,0,0,0-6.59.16c-4.67.28-10,.59-13.36-.35a1.44,1.44,0,0,1,.07-.92c3.31,1,9,.67,13.25.42a40.75,40.75,0,0,1,7.24-.1c.24,0,.53.1.87.19,0,.13,0,.26.07.39S108,26.7,108,26.82Zm-.09-6a3,3,0,0,1-.09.38,4.46,4.46,0,0,0-.11.46C102.31,20,92.5,17.16,87.21,18.73l-1.36-.4C91.11,15.87,101.9,19,107.92,20.81ZM61.26,4.36a1.28,1.28,0,0,1-.06-1.81L62.27,1.4a1.29,1.29,0,0,1,.89-.4,1.24,1.24,0,0,1,.92.35l5.23,4.89a1.29,1.29,0,0,1,.06,1.82L68.3,9.2a1.3,1.3,0,0,1-1.82.06Zm9.79,8.09-.21-.2.22-.24a.89.89,0,0,0,0-1.28.84.84,0,0,0-.65-.25.91.91,0,0,0-.63.29l-.23.25-.89-.8A2.25,2.25,0,0,0,69,9.88L70.1,8.74a2.4,2.4,0,0,0,.3-.41l.09.08-.09.1a.91.91,0,0,0,0,1.28.9.9,0,0,0,1.28,0l.08-.08,1,.93c.21.2.24.3.24.32s0,.15-.14.25l-1.26,1.35C71.45,12.7,71.39,12.76,71.05,12.45Zm2,.26.21-.23c2.09,2.74,6.41,4.79,10.65,6.24l-.27.37C79.92,17.81,75.57,15.79,73,12.71ZM82.29,21a1.55,1.55,0,0,0-.08.23c-3.3,0-7.49.56-10.85,2.58l-.14-.32C74.61,21.41,78.81,20.94,82.29,21ZM67.51,24.29a.91.91,0,0,0,1.65-.75l-.14-.3.27-.12a.74.74,0,0,1,.39-.1s.11.1.17.23l.76,1.68c.11.24.15.32-.27.51L69.1,26l0-.1a.92.92,0,0,0-.51-.48,1,1,0,0,0-.69,0,.9.9,0,0,0-.45,1.2l0,.11-.1.05a3,3,0,0,0-.15-.48l-.65-1.42a1.9,1.9,0,0,0-.23-.39L67.38,24ZM57.42,27.63l6.52-3a1.29,1.29,0,0,1,1.7.64l.65,1.43a1.45,1.45,0,0,1,.11.5h0v0a1.41,1.41,0,0,1-.07.45,1.31,1.31,0,0,1-.67.72l-6.53,2.95a1.28,1.28,0,0,1-1,0,1.3,1.3,0,0,1-.72-.68l-.64-1.42A1.28,1.28,0,0,1,57.42,27.63Z"/>
  <path class="cls-1" d="M30.55,40.15a25.26,25.26,0,0,0-11.08,4C11.66,49,7.6,56.14,10.23,60.34c1.14,1.83,3.39,2.8,6.38,2.8.38,0,.77,0,1.17,0a25.37,25.37,0,0,0,11.07-4,25.23,25.23,0,0,0,8.42-8.22c1.82-3.1,2.11-5.94.82-8S34.13,39.87,30.55,40.15Zm5.86,10.24a24.36,24.36,0,0,1-8.09,7.88A24.44,24.44,0,0,1,17.7,62.1c-3.2.25-5.54-.56-6.62-2.29C8.78,56.15,12.79,49.49,20,45a24.38,24.38,0,0,1,10.62-3.84c.38,0,.74,0,1.09,0,2.64,0,4.58.81,5.54,2.33C38.32,45.15,38,47.62,36.41,50.39Z"/>
  <path class="cls-1" d="M46.54,53.33c2.2-5.67,1.91-11.2-.83-15.58s-7.59-7-13.65-7.55a30.36,30.36,0,0,0-18.27,4.85C1.82,42.55-3.35,56,2.28,64.94c3.14,5,9,7.62,15.65,7.62a31,31,0,0,0,16.26-4.92A30.32,30.32,0,0,0,46.54,53.33ZM3.12,64.41c-5.33-8.52-.31-21.31,11.2-28.51A30,30,0,0,1,30,31.12c.65,0,1.3,0,1.94.08,5.74.47,10.31,3,12.88,7.08s2.83,9.32.75,14.68a29.35,29.35,0,0,1-12,13.84C22.15,74,8.46,72.93,3.12,64.41Z"/>
  <path class="cls-1" d="M55.14,64.18c-4.75,1.39-9.63,1-12.74-1a.5.5,0,0,0-.69.14.51.51,0,0,0,.15.7,14.28,14.28,0,0,0,7.69,2,20.91,20.91,0,0,0,5.87-.86c7.75-2.27,12.81-8.33,11.3-13.51-1.48-5-8.55-7.42-16.11-5.47a.5.5,0,1,0,.25,1c7-1.81,13.58.28,14.9,4.78C67.12,56.56,62.36,62.07,55.14,64.18Z"/>
  <path class="cls-1" d="M77.09,48.48c-3.1-10.58-16-16-29.44-12.42a.5.5,0,1,0,.26,1c12.88-3.47,25.27,1.69,28.22,11.74,1.44,4.9.36,10.23-3,15A28,28,0,0,1,58,74.08c-9.11,2.67-18.7.92-24.45-4.44a.49.49,0,0,0-.7,0,.5.5,0,0,0,0,.71c4.14,3.87,10.18,5.94,16.63,5.94A31.5,31.5,0,0,0,58.32,75a29.07,29.07,0,0,0,15.6-10.7C77.49,59.31,78.61,53.68,77.09,48.48Z"/>
</svg>
