<svg xmlns="http://www.w3.org/2000/svg" width="82.33" height="101" viewBox="0 0 82.33 101">
  <defs>
    <style>
      .cls-1 {
        fill: #fff;
      }
    </style>
  </defs>
  <path class="cls-1" d="M81.36,63.12a58.49,58.49,0,0,0-3.3-10.92A102.35,102.35,0,0,1,72.65,24l-.73-14.5c-.1-3.62-.46-8.14-1.64-9.2a.77.77,0,0,0-.55-.24L57.26,0h0c-1.68,0-2.6,4.29-2.9,6.14a.49.49,0,0,0,0,.12c0,.06.38,6.24-.81,27.86,0,.11.1,11.4-7.56,19.38-.31.28-7.62,6.93-9.32,11.68a26.77,26.77,0,0,0,5.21,27.09c-4.23,2.16-11.88,3.13-12,3.14C13.15,97.65,8,90.45,7,88.71A2.58,2.58,0,0,0,8.16,87,2.55,2.55,0,0,0,7.53,85L4.74,82.26A2,2,0,0,0,2.3,82L.57,83.07a1.9,1.9,0,0,0-.14,2.54,27.11,27.11,0,0,0,20.93,15,25.79,25.79,0,0,0,4.41.34c8.42,0,18.51-3,19.69-3.35a24.61,24.61,0,0,0,7.47-.46h0l1.23,0q1.37.09,2.64.09c17.93,0,23.11-12.88,23.15-13C83.22,77.27,82.52,68.91,81.36,63.12Zm-11.73-62c.18.18,1.1,1.41,1.29,8.48l.73,14.51a96.59,96.59,0,0,0,2,15.75H57.12A14.53,14.53,0,0,0,57.28,38c1.42-12.38.64-33.43.49-37ZM54.49,34.15c1.14-20.55.86-27.2.82-27.89a16.18,16.18,0,0,1,1.48-4.85C57,5.83,57.66,26,56.28,38a13.35,13.35,0,0,1-.2,1.85l-2.23,0h0A28.44,28.44,0,0,0,54.49,34.15ZM37.55,65.56c1.63-4.55,9-11.24,9.09-11.33a28.85,28.85,0,0,0,7-13.45.48.48,0,0,0,.23.07h2c-.72,3.55-2.84,10-9,16.86-.25.26-6.14,6.41-7.73,10.57a.45.45,0,0,0,0,.16s-.21,4.93,0,8.53a40.36,40.36,0,0,0,2.68,13.68A25.66,25.66,0,0,1,37.55,65.56Zm4.78,16.27-2-1.17c-.12-1-.18-1.91-.21-2.57a9.48,9.48,0,0,0,2,.88h.11Zm3.12,14.82a.41.41,0,0,0-.19,0c-.15,0-14.87,4.54-23.78,3A26.12,26.12,0,0,1,1.3,85.11s-.59-.88-.15-1.23l1.69-1.09a1,1,0,0,1,.5-.14A1,1,0,0,1,4,83L6.8,85.73a1.47,1.47,0,0,1,.37,1.12,2,2,0,0,1-1.09,1.26.5.5,0,0,0-.22.62C6,89.15,10.32,99.05,30,96.41c.49-.06,12-1.51,14.85-5.14a.16.16,0,0,0,0-.07,3.84,3.84,0,0,1,2.66-1.8s2.83-.37,5.88-.51c0,0,3.88,0,4.58,3a2.87,2.87,0,0,1-1.41,3A21.07,21.07,0,0,1,45.45,96.65ZM74,90.53c-3.22,2.78-8.91,5.93-18,5.72.66-.27,1.05-.48,1.11-.51a3.89,3.89,0,0,0,1.87-4c-.69-3-3.89-3.8-5.54-3.8h0c-3.11.14-6,.51-6,.51A4.76,4.76,0,0,0,44,90.67a4.5,4.5,0,0,1-.83.79.5.5,0,0,0,0-.13,34.15,34.15,0,0,1-2.63-9.41l2.09,1.24a.51.51,0,0,0,.76-.45l-.44-11.16c.2-.82,2.61-9.93,10.56-12.33a24.75,24.75,0,0,1,9.67-.92C70,59.09,74.79,63,77.35,69.92A21.4,21.4,0,0,1,73.8,87.27a.51.51,0,0,0,0,.53.5.5,0,0,0,.44.27h0L76.47,88A20.45,20.45,0,0,1,74,90.53ZM77.27,87h-.06l-2,.08a20.47,20.47,0,0,0,1.58-2.76h2.11A17.42,17.42,0,0,1,77.27,87Zm2-3.69h-2.1A22.33,22.33,0,0,0,78.3,69.61c-6.49-17.49-24.94-11.4-25.11-11.34C44.36,60.93,42,71,41.94,71.4a.5.5,0,0,0,0,.12l.26,6.42a6.63,6.63,0,0,1-2.09-1.11v0c-.18-3.28,0-7.6,0-8.24,1.56-4,7.42-10.1,7.49-10.18,6.53-7.27,8.66-13.93,9.35-17.54l16.93,0a100.88,100.88,0,0,0,3.26,11.75C77.21,52.74,84.82,70.34,79.32,83.27Z"/>
</svg>
