<svg xmlns="http://www.w3.org/2000/svg" width="84.67" height="101.01" viewBox="0 0 84.67 101.01">
  <defs>
    <style>
      .cls-1 {
        fill: #fff;
      }
    </style>
  </defs>
  <path class="cls-1" d="M61,52.26H62.4a1.89,1.89,0,0,0,1.89-1.89V39.65a1.89,1.89,0,0,0-1.89-1.89H61a1.89,1.89,0,0,0-1.89,1.89V50.37A1.89,1.89,0,0,0,61,52.26Zm-.89-12.61a.91.91,0,0,1,.89-.89H62.4a.91.91,0,0,1,.89.89V50.37a.91.91,0,0,1-.89.89H61a.91.91,0,0,1-.89-.89Z"/>
  <path class="cls-1" d="M61.39,60.72c-6.47,0-11.73,4.92-11.73,11s5.26,11,11.73,11,11.73-4.93,11.73-11S67.86,60.72,61.39,60.72Zm0,20.94c-5.91,0-10.73-4.48-10.73-10s4.82-10,10.73-10,10.73,4.47,10.73,10S67.31,81.66,61.39,81.66Z"/>
  <path class="cls-1" d="M61.39,57.94c-8.07,0-14.63,6.17-14.63,13.75s6.56,13.74,14.63,13.74S76,79.26,76,71.69,69.46,57.94,61.39,57.94Zm0,26.49c-7.51,0-13.63-5.72-13.63-12.74s6.12-12.75,13.63-12.75S75,64.66,75,71.69,68.9,84.43,61.39,84.43Z"/>
  <path class="cls-1" d="M68.12,42h-.05v-.42a28.79,28.79,0,0,1,2-5.56c.62-2.64.76-3.46.77-3.54L72.23,1.76C72.23.37,71.41,0,71,0H69.15a1.54,1.54,0,0,0-1.09.56,1.27,1.27,0,0,0-.23.83L66.24,16.52H58.58L57.73,1.38A1.29,1.29,0,0,0,56.35.13H54.58c-.8,0-1.23.78-1.36,1.24l0,.12c-.63,13.49.24,33.56.25,33.76l0,.18c2.13,5,2,6.53,2,6.6v.62C46.74,46,40.2,54.81,38.81,65.23A29.34,29.34,0,0,0,44,87a22.75,22.75,0,0,0,4.8,4.71c-4.3,1.06-23.44,5.45-37.92,4a9.16,9.16,0,0,0-5-1.73h0l-3.2,0A2.46,2.46,0,0,0,0,96.05v.1l0,.08a18.23,18.23,0,0,0,.9,2.48A3.63,3.63,0,0,0,3,100.45,7.79,7.79,0,0,0,6,101a8.91,8.91,0,0,0,4.51-1.25c2.08,0,25.94.25,42.74-5.64a19.35,19.35,0,0,0,4.6,1.25,19.78,19.78,0,0,0,2.65.18c11.51,0,21.92-10.2,23.87-24C86.29,58,79.31,45.29,68.12,42ZM54.44,35.12c-.06-1.48-.84-20.54-.25-33.52.06-.17.23-.47.39-.47h1.77c.06,0,.38,0,.38.28l.91,16.11h9.55L68.83,1.41V1.3a.24.24,0,0,1,.05-.14A.54.54,0,0,1,69.21,1H71c.11,0,.28.19.28.74L69.85,32.33s-.13.83-.72,3.33c-.21.47-2.06,4.67-2.06,5.88L67,49.19a6.38,6.38,0,0,0,4.25,6.18,5.26,5.26,0,0,1-4.22.71c-5.71-2.07-9.6-.4-10.17-.13a4.64,4.64,0,0,1-2.53-.11L52.35,55a5.63,5.63,0,0,0,4-5.74l.12-7.12C56.49,42,56.67,40.33,54.44,35.12ZM76.47,79a6.75,6.75,0,0,0,.87,2.14c.18.4.59,1.66,0,2.2l-3.5,3.38S72.7,87.56,72,87a11.88,11.88,0,0,0-2.88-.94A16.54,16.54,0,0,0,76.47,79ZM66.35,86.09l-.13,0-.14.06a16.32,16.32,0,0,1-4.56.65A15.75,15.75,0,0,1,46.43,76.11a1,1,0,0,0,0-.17,21.74,21.74,0,0,1,0-8.7,16,16,0,0,1,29.86-.79,3.38,3.38,0,0,0,.14,1.12,14.61,14.61,0,0,1-.13,9l0,.11s0,.15,0,.34A15.56,15.56,0,0,1,66.35,86.09Zm-16,5.44.27.06,1-4.64,1.72-.15a4,4,0,0,1,1.11-.14h.37l.83.25L53.2,93A19.56,19.56,0,0,1,50.38,91.53Zm-4-28.33L45.3,60.09a1.25,1.25,0,0,1,.17-1.29l3.58-3.46c.08-.11.54-.62,1.42-.1l3.4,1.51a4.26,4.26,0,0,0,.79.22,16.54,16.54,0,0,0-8.07,7.4C46.53,64,46.46,63.63,46.35,63.2Zm0,15.41a16.53,16.53,0,0,0,7,7.16l-.2,0-2.93.26a4.4,4.4,0,0,1-1.79-.24s-.9-.34-3.36-2.8c0-.05-.53-.55.13-1.69l1.16-2.61A1.32,1.32,0,0,1,46.39,78.61ZM68.9,57.21a6.28,6.28,0,0,0,3.4-1.41l.07-.07a1.75,1.75,0,0,1,1-.61.6.6,0,0,1,.47.18,31.94,31.94,0,0,1,4,3.82,2.23,2.23,0,0,1,.08,2.24,17.49,17.49,0,0,0-1.28,3.26A16.5,16.5,0,0,0,68.9,57.21ZM44.82,86.36a28.33,28.33,0,0,1-5-21C41.13,55.45,47.25,47,55.44,43.74l-.1,5.52c.23,4.16-4,5-4.13,5l0,.21-.32-.15a2,2,0,0,0-2.63.33l-3.58,3.46a2.22,2.22,0,0,0-.33,2.35h0l1,3a5.52,5.52,0,0,1,.15,3.2l0,.09c0,.07,0,.14-.05.21a15.37,15.37,0,0,0,0,9.33,2.16,2.16,0,0,1,0,.29l0,0,0,.15a6,6,0,0,1-.09,1.62l-1.11,2.47c-1.08,1.86.06,2.86.08,2.88,2.61,2.61,3.58,3,3.72,3a5.47,5.47,0,0,0,2.22.28l.24,0-.84,4A21.78,21.78,0,0,1,44.82,86.36ZM10.37,98.76h-.14l-.13.08a7.63,7.63,0,0,1-6.76.69,2.67,2.67,0,0,1-1.52-1.26l-.05-.09A21.63,21.63,0,0,1,1,96c.15-1.15,1.48-1.19,1.64-1.17l3.21,0h0a8.29,8.29,0,0,1,4.54,1.61l.12.09h.14c16.29,1.72,38.49-4,39.27-4.18a21.65,21.65,0,0,0,1.93,1.09C34.6,99.22,10.61,98.76,10.37,98.76Zm73-27.33C81.34,85.72,69.94,96,58,94.38a18.26,18.26,0,0,1-3.85-1l2.49-6.22c5.52,1.4,9,.24,9.79-.06l.34-.11c2-.45,4.68.83,4.69.83a1.78,1.78,0,0,0,1.1.37,3.5,3.5,0,0,0,2-.78L78,84.05c1.28-1.12.29-3.28.22-3.42a6.65,6.65,0,0,1-.95-3.44,15.21,15.21,0,0,0,0-10.9,13,13,0,0,1,1.45-4.49,3.22,3.22,0,0,0-.19-3.29,32,32,0,0,0-4.1-4,1.59,1.59,0,0,0-1.2-.41,2.25,2.25,0,0,0-1.16.51c-4.41-1.42-4.17-5.19-4.15-5.39l.12-6.19v0C78.65,46.31,85.22,58.47,83.36,71.43Z"/>
</svg>
