<svg xmlns="http://www.w3.org/2000/svg" width="71.49" height="100.93" viewBox="0 0 71.49 100.93">
  <defs>
    <style>
      .cls-1 {
        fill: #fff;
      }
    </style>
  </defs>
  <path class="cls-1" d="M70.76,70c.23-1.46,3-22.19-19.45-29.53-.06,0-1.54-.44-1.84-3.19h5.47A2.1,2.1,0,0,0,57,35.16V24.08A2.08,2.08,0,0,0,55.2,22a124.27,124.27,0,0,0,.95-19A2.48,2.48,0,0,0,54.23.85C45.13-1,39,.78,38.71.86A2.46,2.46,0,0,0,36.83,3a123.6,123.6,0,0,0,.94,19,2.09,2.09,0,0,0-2,2.09V35.16a2.1,2.1,0,0,0,2.09,2.09h5.31c-.29,2.75-1.77,3.18-1.87,3.2C19.17,47.68,21.54,67.91,21.83,69.89A2.2,2.2,0,0,0,21,71.61v3.88a2.21,2.21,0,0,0,2.22,2.22h.63a29.44,29.44,0,0,0,6.81,15.58l-.25.06a1.56,1.56,0,0,0-1.18,1.36c-5.42.73-10-.43-13.52-3.46C8,84.64,7.22,71.16,7.16,69.55a1.15,1.15,0,0,0,.62-.5,1.19,1.19,0,0,0,.13-.81c3.14-.8,3.57-3.43,3.57-5.49V52.54A5.74,5.74,0,0,0,0,52.54V62.75c0,2.35.33,4.83,3.63,5.54v0a1.38,1.38,0,0,0,.27,1,1.1,1.1,0,0,0,.45.31c.06,2.59.76,16.11,9,23.48a18.72,18.72,0,0,0,12.9,4.65c.86,0,1.75-.06,2.65-.15v.1a1,1,0,0,0,.14.85,1.2,1.2,0,0,0,1.07.4h.65a23.54,23.54,0,0,0,5.9-.7,19.15,19.15,0,0,0,9.64,2.63c11.09,0,20.51-9.75,22.46-23.22h.53a2.22,2.22,0,0,0,2.22-2.22V71.61A2.21,2.21,0,0,0,70.76,70ZM37.67,3A1.64,1.64,0,0,1,39,1.67c.06,0,6.23-1.83,15.06,0A1.65,1.65,0,0,1,55.31,3a122,122,0,0,1-1,19H38.62A123.79,123.79,0,0,1,37.67,3Zm-.94,32.13V24.08A1.09,1.09,0,0,1,37.82,23H54.94A1.09,1.09,0,0,1,56,24.08V35.16a1.09,1.09,0,0,1-1.09,1.09H37.82A1.09,1.09,0,0,1,36.73,35.16Zm4.8,6.26c.09,0,2.26-.58,2.61-4.17h4.33C48.81,40.84,51,41.39,51,41.4c20.82,6.81,19.21,25,18.79,28.06a2.61,2.61,0,0,0-.56-.08H68.13a2.27,2.27,0,0,0-1,.23c-3.62-22.8-20.64-21.78-20.74-21.77S29,46.86,25.23,69.56a2.29,2.29,0,0,0-.87-.18H23.22a2.12,2.12,0,0,0-.44.05C22.4,66.38,21.06,48.11,41.53,41.42ZM22,75.49V71.61a1.23,1.23,0,0,1,1.22-1.23h1.14a1.23,1.23,0,0,1,1.22,1.23v3.88a1.22,1.22,0,0,1-1.22,1.22H23.22A1.22,1.22,0,0,1,22,75.49ZM1,62.75V52.54a4.74,4.74,0,0,1,9.48,0V62.75c0,3.37-1.37,4.74-4.74,4.74C1.35,67.49,1,65.44,1,62.75Zm4.74,5.74a10.89,10.89,0,0,0,1.19-.07c0,.08,0,.16-.06.19l-1.94.14-.1,0h0l-.09,0a.2.2,0,0,1-.08,0,.37.37,0,0,1,0-.26h0C5,68.47,5.33,68.49,5.74,68.49ZM14,92.39c-7.75-6.92-8.58-20-8.67-22.67l.83-.06C6.24,71.73,7,85.15,15.05,92a16.64,16.64,0,0,0,11.14,3.92,22.75,22.75,0,0,0,2.92-.2l-.11.9C22.93,97.27,17.88,95.85,14,92.39ZM30.09,98c-.23,0-.29,0-.24,0l.36-3a.57.57,0,0,1,.39-.58,7.15,7.15,0,0,0,5.91-5.53A13.75,13.75,0,0,0,42.34,93l0,0a15.63,15.63,0,0,1-3.83,3.44C35.71,98.19,30.19,98,30.09,98ZM32.42,73c0-11.21,6-19.67,14-19.67s14,8.46,14,19.67-6,19.68-14,19.68S32.42,84.26,32.42,73ZM46.28,99.93a18,18,0,0,1-8.35-2.07A8.23,8.23,0,0,0,39,97.32a16.85,16.85,0,0,0,4.11-3.7l.22-.3a12.1,12.1,0,0,0,3.08.4c8.54,0,15-8.89,15-20.68S55,52.37,46.41,52.37s-15,8.89-15,20.67A25.2,25.2,0,0,0,35.71,87.8l0,.07a6.19,6.19,0,0,1-4,5.12l-.26-.31a28.45,28.45,0,0,1-6.6-15,2.21,2.21,0,0,0,1.73-2.16V71.61a2.15,2.15,0,0,0-.46-1.34c3.4-22.35,19.54-21.48,20.3-21.43s16.32-.94,19.77,21l.08.57a2.18,2.18,0,0,0-.36,1.21v3.88a2.22,2.22,0,0,0,1.82,2.18C65.82,90.58,56.84,99.93,46.28,99.93ZM70.49,75.49a1.22,1.22,0,0,1-1.22,1.22H68.13a1.22,1.22,0,0,1-1.22-1.22V71.61a1.23,1.23,0,0,1,1.22-1.23h1.14a1.23,1.23,0,0,1,1.22,1.23Z"/>
</svg>
