<svg xmlns="http://www.w3.org/2000/svg" width="73.84" height="101.01" viewBox="0 0 73.84 101.01">
  <defs>
    <style>
      .cls-1 {
        fill: #fff;
      }
    </style>
  </defs>
  <path class="cls-1" d="M73.13,70.56c.23-1.5,2.9-21.83-19.14-29-.06,0-1.58-.45-1.82-3.28V36.88a.5.5,0,0,0-.5-.5.5.5,0,0,0-.5.5v1.4c.3,3.64,2.49,4.19,2.54,4.2C74.16,49.17,72.61,67,72.19,70.05a2.34,2.34,0,0,0-.54-.08H70.52a2.23,2.23,0,0,0-.93.22c-3.57-22.4-20.3-21.41-20.4-21.4S32,47.82,28.34,70.14A2.33,2.33,0,0,0,27.5,70H26.37a2,2,0,0,0-.43,0C25.51,66.91,24,49.15,44.38,42.49c.09,0,2.23-.56,2.57-4.14V36.77a.49.49,0,0,0-.2-.39h10a2.05,2.05,0,0,0,2.06-2l.91-10.93a2.07,2.07,0,0,0-1.59-2A123.08,123.08,0,0,0,59,3a2.53,2.53,0,0,0-2-2.17c-9-1.86-15-.07-15.29,0A2.52,2.52,0,0,0,39.87,3a120.64,120.64,0,0,0,.89,18.35,2.06,2.06,0,0,0-2,2.09l.9,10.85a2.07,2.07,0,0,0,2.06,2.07h4.41a.52.52,0,0,0-.2.39V38.3c-.27,2.78-1.75,3.2-1.85,3.23-21.7,7.1-19.4,27-19.11,28.94a2.16,2.16,0,0,0-.82,1.69V76a2.19,2.19,0,0,0,2.19,2.19H27a29.08,29.08,0,0,0,6.11,14.59l-1.34,1a2.81,2.81,0,0,0-.86,1.5c-5.21.64-9.59-.5-13-3.43C9.8,84.94,9.47,70.47,9.46,70.32a.48.48,0,0,0-.07-.23,2.08,2.08,0,0,0,1.17-1.35l.06-6C13.51,62.09,15,60,15,56.54V53.91A6.42,6.42,0,0,0,8.58,47.5H6.41A6.42,6.42,0,0,0,0,53.91v2.63c0,3.48,1.55,5.58,4.47,6.2l.75,6.05a2.39,2.39,0,0,0,1.45,1.44c0,1.13.22,15.73,8.86,23.45a18.35,18.35,0,0,0,12.69,4.57,29,29,0,0,0,3-.17,1.73,1.73,0,0,0,1.66,1.24h0l6.44-1,0,0A18.75,18.75,0,0,0,49,101c10.91,0,20.17-9.59,22.1-22.83h.51A2.19,2.19,0,0,0,73.84,76V72.16A2.19,2.19,0,0,0,73.13,70.56ZM40.87,3.07a1.54,1.54,0,0,1,1.21-1.26c.05,0,6.08-1.8,14.76,0A1.5,1.5,0,0,1,58,3.06a121.77,121.77,0,0,1-.89,18.3H41.76A121.7,121.7,0,0,1,40.87,3.07Zm-.19,31.2-.9-10.85a1.07,1.07,0,0,1,1.06-1.06H57.67a1.06,1.06,0,0,1,1.07,1l-.9,10.93a1.07,1.07,0,0,1-1.07,1.07h-15A1.08,1.08,0,0,1,40.68,34.27ZM25.18,76V72.16A1.19,1.19,0,0,1,26.37,71H27.5a1.2,1.2,0,0,1,1.19,1.19V76a1.19,1.19,0,0,1-1.19,1.19H26.37A1.19,1.19,0,0,1,25.18,76ZM1,56.54V53.91A5.41,5.41,0,0,1,6.41,48.5H8.58A5.41,5.41,0,0,1,14,53.91v2.63C14,60.23,12.27,62,8.58,62H6.41C2.77,62,1,60.18,1,56.54Zm5.19,12-.7-5.69c.3,0,.6.06.92.06H8.58c.37,0,.7,0,1-.07l0,5.64c-.33,1-1.67.85-1.81.85A1.5,1.5,0,0,1,6.19,68.58Zm10,24.36c-7.95-7.1-8.5-20.82-8.53-22.58h.08l.32,0,.39,0c0,.72.38,15.08,8.75,22.22a16.33,16.33,0,0,0,11,3.86,22.27,22.27,0,0,0,2.78-.19l.13.85C25,97.75,20,96.36,16.2,92.94Zm16.65,5.38c-.53,0-.67-.63-.68-.68l-.28-1.8a.41.41,0,0,0,0-.22.28.28,0,0,0,0-.13,1.73,1.73,0,0,1,.5-1l3.05-2.2a.68.68,0,0,1,.93,0c1.42,1.25,4.72,3.48,4.86,3.57h0c.65.42.77.7.76.76s-.2.21-.29.25ZM49,100A17.68,17.68,0,0,1,41,98l.95-.15c.1,0,1-.33,1.05-1.09.08-.58-.31-1.14-1.2-1.72-.11-.08-3.39-2.3-4.74-3.48a1.66,1.66,0,0,0-2.21-.07l-.91.66A28.2,28.2,0,0,1,28,78.12,2.19,2.19,0,0,0,29.69,76V72.16a2.14,2.14,0,0,0-.45-1.31c3.33-22,19.19-21.11,20-21.06s16-.92,19.42,20.63l.08.56a2.19,2.19,0,0,0-.36,1.18V76a2.2,2.2,0,0,0,1.8,2.15C68.24,90.83,59.42,100,49,100Zm23.8-24a1.19,1.19,0,0,1-1.19,1.19H70.52A1.19,1.19,0,0,1,69.33,76V72.16A1.2,1.2,0,0,1,70.52,71h1.13a1.19,1.19,0,0,1,1.19,1.19Z"/>
  <path class="cls-1" d="M70.32,64.3c.45-.39.17-1.46.17-1.46A26.31,26.31,0,0,0,67,54.16c-.57-.83-1-.39-1-.39l-.53.44a1,1,0,0,0,.12,1.19,28.22,28.22,0,0,1,3.85,7.79C69.89,64.24,70.32,64.3,70.32,64.3Z"/>
  <path class="cls-1" d="M62.42,52.57a.89.89,0,0,0,1.37.18l.47-.33a.86.86,0,0,0,.17-1.34,21.06,21.06,0,0,0-6.91-5.22c-1.12-.32-1.36.4-1.36.4l-.24,1.37c-.23,1,.87,1.35.87,1.35A16.34,16.34,0,0,1,62.42,52.57Z"/>
  <path class="cls-1" d="M31,54.19a26.44,26.44,0,0,0-3.44,8.68s-.28,1.07.17,1.46c0,0,.43-.06.82-1.11a28.36,28.36,0,0,1,3.85-7.79,1,1,0,0,0,.13-1.19L32,53.8S31.57,53.36,31,54.19Z"/>
  <path class="cls-1" d="M40.53,45.89a21.33,21.33,0,0,0-6.92,5.22.86.86,0,0,0,.18,1.34l.47.33a.89.89,0,0,0,1.37-.17A16.18,16.18,0,0,1,41.25,49s1.11-.36.87-1.35l-.23-1.37S41.64,45.57,40.53,45.89Z"/>
  <path class="cls-1" d="M44.32,45.44l.22,1.18a1.11,1.11,0,0,0,1.32,1,16.33,16.33,0,0,1,6,.06A1.12,1.12,0,0,0,53.3,47l.44-1.66A1,1,0,0,0,52.83,44a14.77,14.77,0,0,0-7.78,0A1.16,1.16,0,0,0,44.32,45.44Z"/>
  <path class="cls-1" d="M49.32,52.62c-9,0-16.33,9.41-16.33,21s7.32,21,16.33,21,16.34-9.41,16.34-21S58.33,52.62,49.32,52.62Zm0,41c-8.45,0-15.33-9-15.33-20s6.88-20,15.33-20,15.34,9,15.34,20S57.78,93.58,49.32,93.58Z"/>
</svg>
