<svg xmlns="http://www.w3.org/2000/svg" width="79.21" height="102.56" viewBox="0 0 79.21 102.56">
  <defs>
    <style>
      .cls-1, .cls-2, .cls-3, .cls-4 {
        fill: none;
        stroke-miterlimit: 10;
      }

      .cls-1, .cls-2 {
        stroke: #fdfeff;
      }

      .cls-1, .cls-3 {
        stroke-linecap: round;
      }

      .cls-3 {
        stroke: #f9f9fa;
      }

      .cls-4 {
        stroke: #fff;
      }
    </style>
  </defs>
  <title>Asset 132</title>
  <g id="Layer_2" data-name="Layer 2">
    <g id="Layer_1-2" data-name="Layer 1">
      <g>
        <path class="cls-1" d="M63.19,44.58c-.15,6.59,1.26,6.68,1.26,6.68a21.63,21.63,0,0,1,4.14,2.28c16.65,12.5,5.92,33.2,5.92,33.2-8.11,18.17-24.76,15.13-24.76,15.13-17.15-3.8-17.15-24-17.15-24-1.35-17,13.94-26.61,13.94-26.61,1-1.57.59-6.68.59-6.68V37.77L46.49,5.28s-.59-3.56,2.87-4.15a27.37,27.37,0,0,1,12.45.22,3.62,3.62,0,0,1,2.4,3.87l-.95,32.44Z"/>
        <path class="cls-1" d="M63,43.88a148.79,148.79,0,0,0-15.64,0"/>
        <path class="cls-1" d="M47.21,38.18a91.58,91.58,0,0,1,16-.07"/>
        <ellipse class="cls-2" cx="55.44" cy="76.8" rx="22.21" ry="18.99" transform="translate(-35.85 102.05) rotate(-69.64)"/>
        <ellipse class="cls-2" cx="55.33" cy="78.31" rx="20.98" ry="17.94" transform="translate(-37.34 102.93) rotate(-69.64)"/>
        <path class="cls-1" d="M32.63,79.73S26.36,59.19,47.06,47.79"/>
        <path class="cls-1" d="M63.19,45.93s20,5.5,14.59,29.07"/>
        <path class="cls-1" d="M36,91.82s-5.37,3.44-6.66,4.88a3.44,3.44,0,0,0,2,3.21A55.46,55.46,0,0,0,38.45,96"/>
        <path class="cls-3" d="M4.83,71.66s-.34,31.14,25,27.84"/>
        <path class="cls-3" d="M6.66,71.83s.3,29,22.66,25.85"/>
        <path class="cls-4" d="M5.74,71.42h0C1,71.42.5,69.29.5,66.68V57.43a5,5,0,0,1,5.24-4.74h0A5,5,0,0,1,11,57.43v9.25C11,69.29,10,71.42,5.74,71.42Z"/>
      </g>
    </g>
  </g>
</svg>
