<svg xmlns="http://www.w3.org/2000/svg" width="70.68" height="101" viewBox="0 0 70.68 101">
  <defs>
    <style>
      .cls-1 {
        fill: #fdfeff;
      }
    </style>
  </defs>
  <path class="cls-1" d="M55.21,53.12c-3.09-.88-3.15-3.19-3.09-3.9h3.27a.51.51,0,0,0,.46-.3c1.78-4.07,1.61-10.6,1.6-10.86A2.68,2.68,0,0,0,56.76,36a1.33,1.33,0,0,0-.55-.32L56.4,3.92a4.25,4.25,0,0,0-1-2.91,3.5,3.5,0,0,0-2.64-1h-9.6a3.46,3.46,0,0,0-2.63,1,4.26,4.26,0,0,0-1,2.89l.19,31.73A1.34,1.34,0,0,0,39,36a2.68,2.68,0,0,0-.69,2.06c0,.28,0,6.8,1.82,10.86a.51.51,0,0,0,.46.3h3.62c.06.71,0,3-3.11,3.91-17.19,5.57-15.43,22-15.41,22.22s.48,3.3,2,4.58a25.26,25.26,0,0,0,6.77,15,7.14,7.14,0,0,1-2.16.68,1.36,1.36,0,0,0-1,.45.73.73,0,0,0-.13.64l.05.33c-5.14.67-9.49-.37-12.94-3.11-6.82-5.41-8.44-15.95-8.82-20.29a1,1,0,0,0,.69-1.09L10,65.91c3.54-.5,4.52-2.73,4.87-6.11V57.14A6.7,6.7,0,0,0,8.4,50.42H6.21A6.48,6.48,0,0,0,0,57.14V59.8C0,63.54,1.79,65.58,5.28,66L6,72.45c0,.7.31,1.15.67,1.24.34,4.62,1.93,16,9.4,22.18a18.75,18.75,0,0,0,12.33,4.18,26.17,26.17,0,0,0,3.14-.19.48.48,0,0,0,.17,0,1.23,1.23,0,0,0,1.21.84H33a50.85,50.85,0,0,0,6-1.45,2.09,2.09,0,0,0,.63-.32A17.78,17.78,0,0,0,48.06,101C58.32,101,67,92,68.39,80.09c1.73-1.15,2.22-4.57,2.25-4.78C71.6,57.64,55.36,53.17,55.21,53.12ZM41.26,1.7A2.53,2.53,0,0,1,43.17,1h9.6a2.47,2.47,0,0,1,1.9.7,3.3,3.3,0,0,1,.73,2.19l-.19,31.77c-1.47-.07-5.14-.07-14.48,0L40.54,3.86A3.3,3.3,0,0,1,41.26,1.7Zm-2,36.36a1.89,1.89,0,0,1,.35-1.31A.52.52,0,0,1,40,36.6c4.26,0,15.39,0,15.78,0h.06a.46.46,0,0,1,.3.15,1.91,1.91,0,0,1,.35,1.33c0,.06.16,6.25-1.4,10.14H40.9C39.33,44.32,39.29,38.12,39.29,38.06ZM1,59.8V57.14a5.49,5.49,0,0,1,5.21-5.72H8.4a5.69,5.69,0,0,1,5.49,5.72v2.61C13.53,63.25,12.57,65,8.33,65H6.15C2.59,64.94,1,63.33,1,59.8ZM6.29,66h2L9,66l.14,6.52v.12A5.58,5.58,0,0,1,7,72.75,1.24,1.24,0,0,1,7,72.38Zm25.1,32.85c-5.92.68-10.88-.59-14.72-3.77C9.59,89.23,8,78.4,7.64,73.8h.28a5.46,5.46,0,0,0,.56,0c.41,4.53,2.12,15.28,9.19,20.9A16.61,16.61,0,0,0,28.3,98.2,23.35,23.35,0,0,0,31.37,98l.13.9A.2.2,0,0,0,31.39,98.87Zm7.35-.65a51.69,51.69,0,0,1-5.88,1.43c-.06,0-.24,0-.28-.3l-.4-2.75a1.3,1.3,0,0,1,.22,0A8.06,8.06,0,0,0,36.21,95a5,5,0,0,1,3.47,2.36A1.81,1.81,0,0,1,38.74,98.22ZM48.06,100a16.72,16.72,0,0,1-7.7-1.89,4.71,4.71,0,0,0,.33-.52.5.5,0,0,0,0-.43A5.92,5.92,0,0,0,36.14,94a.49.49,0,0,0-.42.12,2.51,2.51,0,0,1-.37.29,24.06,24.06,0,0,1-6.56-13.93c.11,0,.22,0,.34,0h.16a.47.47,0,0,0,.38-.22.5.5,0,0,0,.07-.43,1.41,1.41,0,0,1,0-1,.49.49,0,0,1,.42-.19.5.5,0,0,0,.46-.5v-1.9a.52.52,0,0,0-.17-.38.5.5,0,0,0-.39-.12.75.75,0,0,1-.46-.12.69.69,0,0,1-.17-.46,21.24,21.24,0,0,1,2.76-8.51,16.38,16.38,0,0,1,5.21-5.5,22.66,22.66,0,0,0-6.22,15.8c0,11,7.61,20,17,20s17-9,17-20a23.75,23.75,0,0,0-5.28-15.15c6.39,4.82,7,12.87,7,13.32a.62.62,0,0,1-.17.49.65.65,0,0,1-.46.13.51.51,0,0,0-.39.12.56.56,0,0,0-.17.38v1.9a.51.51,0,0,0,.47.5.51.51,0,0,1,.42.19,1.47,1.47,0,0,1,0,1,.5.5,0,0,0,.07.43.47.47,0,0,0,.37.22h.16l.16,0C65.81,91.66,57.67,100,48.06,100Zm0-41.76a21.67,21.67,0,0,1,8.2,1.5l.81.73c4.3,3.39,7.08,9.85,7.08,16.46,0,10.5-7.17,19-16,19s-16-8.54-16-19c0-6.8,3.1-13.38,7.88-16.76l1.44-1h0A22.54,22.54,0,0,1,48.05,58.24Zm21.59,17c-.14,1.07-.76,3.61-2,4.16a1.94,1.94,0,0,0-.27-1.12,1.36,1.36,0,0,0-.72-.53v-1a1.53,1.53,0,0,0,.68-.33,1.63,1.63,0,0,0,.51-1.26c0-.15-.79-11.7-11-16.14l0,0h0a21.92,21.92,0,0,0-8-1.66.5.5,0,0,0-.13,0h-1a.5.5,0,0,0-.13,0c-17.89.57-19.05,17.65-19.06,17.87A1.57,1.57,0,0,0,29,76.35a1.55,1.55,0,0,0,.67.33v1a1.37,1.37,0,0,0-.71.53,1.8,1.8,0,0,0-.27,1.12c-1.23-.55-1.85-3.09-2-4.15,0-.16-1.7-15.82,14.7-21.13C45,53,45.24,50.26,45.19,49.22h5.93c0,1,.17,3.83,3.83,4.87C55.1,54.13,70.56,58.39,69.64,75.21Z"/>
</svg>
