<svg xmlns="http://www.w3.org/2000/svg" width="79.26" height="101.12" viewBox="0 0 79.26 101.12">
  <defs>
    <style>
      .cls-1 {
        fill: #fdfeff;
      }
    </style>
  </defs>
  <path class="cls-1" d="M68.41,44.11a.37.37,0,0,0-.12-.13c-2.87-2.14-2.72-7.49-2.72-7.59-.45-11.57,1.24-33.91,1.25-34.07a1.42,1.42,0,0,0-.16-1.16,1.42,1.42,0,0,0-.9-.6C55.18-.8,50.32.73,50.2.75,48.87.9,49,2.28,49.05,3c.22,1,.22,21.17.17,34.47A11.38,11.38,0,0,1,47,44.6a.25.25,0,0,0,0,.07A31,31,0,0,0,34.12,60.81c-4.63,13.31,0,27.24,10.23,32.47a1.67,1.67,0,0,1-.71,1.26l-3,1.29a1.14,1.14,0,0,0-.73,1.06c-7.12,2-13.35,1.33-18.53-1.89C11.69,89,8.63,75.68,8.24,73.8a.5.5,0,0,0,.19-.19A37,37,0,0,0,9.8,70c.79-1.85.45-5,.44-5.15l-.35-3.47a3.84,3.84,0,0,0-1.46-3,5.67,5.67,0,0,0-4.38-1.18A5.63,5.63,0,0,0,.66,59.5,5.69,5.69,0,0,0,.05,63,22.67,22.67,0,0,0,5,74.37a.38.38,0,0,0,.13.09C5.7,77.17,9.16,91,19.61,97.58a23.28,23.28,0,0,0,12.64,3.54,33.24,33.24,0,0,0,8.52-1.2,1.07,1.07,0,0,0,.42.44,1.14,1.14,0,0,0,.55.13,2,2,0,0,0,.56-.09l7-2.62a2.94,2.94,0,0,0,1.32-2.58,19.14,19.14,0,0,0,2.62.2A22.48,22.48,0,0,0,64.76,92a30.27,30.27,0,0,0,12.7-16.12C81.91,63.13,77.85,49.77,68.41,44.11ZM66.06,42.9q-.6-.26-1.23-.48a14.06,14.06,0,0,0-3.56-.88l-.2,0-.6-1.81V27.15a25.48,25.48,0,0,1,4.12.62c-.09,3.16-.12,6.14,0,8.63A13.61,13.61,0,0,0,66.06,42.9Zm4.66,26.7a17.44,17.44,0,0,0-.8-3.94A13.67,13.67,0,0,0,62.08,57c-7.58-3-16.65,1.79-20.22,10.73A19.26,19.26,0,0,0,41,79.84a20.22,20.22,0,0,1,.25-14.67,20.88,20.88,0,0,1,9-10.62,13.61,13.61,0,0,1,11.86-1.1C68,55.79,71.24,62.36,70.72,69.6ZM42.79,68.09c2.69-6.74,8.65-11,14.55-11a11.63,11.63,0,0,1,4.37.84A12.67,12.67,0,0,1,69,66a18.77,18.77,0,0,1-8.66,21.68,12.66,12.66,0,0,1-10.81.84C42.43,85.68,39.42,76.52,42.79,68.09ZM56,40V34.33h1.22V45.21l-5,6ZM50.24,17c1-.2,8-1.53,14.43,0l.55.12c.13,0-.18-.17-.09-.26-.2,3.22-.39,6.64-.5,9.92a37.58,37.58,0,0,0-14.39,0C50.25,23.64,50.25,20.22,50.24,17Zm9.23,10.13v6.26H56.05l0-6.24C57.13,27,58.28,27,59.47,27.08ZM57.77,49.8a.5.5,0,0,0,.5-.5V47l5,5.86c-.23-.11-.45-.24-.69-.33a14.09,14.09,0,0,0-10.09,0l4.82-5.73V49.3A.5.5,0,0,0,57.77,49.8Zm.5-4.35V34.33h1.2v5.51l3.72,11.42ZM50.44,1.72c.06,0,5.73-1.38,15.16-.17a.42.42,0,0,1,.22.15c.06.09.07.22,0,.46s-.47,6.44-.66,14c-.06-.09.1-.11,0-.14-6.34-1.54-13.34-.43-14.91-.12,0-6.71-.07-12.52-.2-13.08C50,2.84,50,2,50.44,1.72Zm-.23,35.73c0-1.1,0-4.94,0-9.69a42.58,42.58,0,0,1,4.83-.62V39.79l-.65,1.91a.54.54,0,0,0-.22,0,23.91,23.91,0,0,0-5.41,2A11.93,11.93,0,0,0,50.21,37.45ZM1.5,60a4.72,4.72,0,0,1,2.74-1.83,4.74,4.74,0,0,1,3.61,1,2.86,2.86,0,0,1,1,2.24L9.24,65a12,12,0,0,1-.37,4.7,37.13,37.13,0,0,1-1.33,3.48s0,0,0,0l-2,.23A22.38,22.38,0,0,1,1,62.83,4.63,4.63,0,0,1,1.5,60ZM20.15,96.73c-10-6.29-13.42-19.58-14-22.39l1.2-.13C7.86,76.85,11,89.72,20.83,95.84c5.41,3.37,11.88,4,19.23,2,.09.3.21.68.36,1.1C32.62,101,25.8,100.28,20.15,96.73Zm29.44-1.59a1.91,1.91,0,0,1-.76,1.73L42,99.45c-.2.07-.29,0-.31,0a1.34,1.34,0,0,1-.07-.18.22.22,0,0,0,0-.08.48.48,0,0,0-.09-.19c-.43-1.14-.62-2-.63-2,0-.16,0-.22.09-.24l3.1-1.33a2.42,2.42,0,0,0,1.23-1.73c.48.21,1,.41,1.47.59a20.23,20.23,0,0,0,2.85.74A.14.14,0,0,0,49.59,95.14ZM76.51,75.59A29.27,29.27,0,0,1,64.24,91.17c-5.55,3.34-11.64,4.11-17.16,2.19-11.43-4-16.81-18.43-12-32.22,3.19-9.15,10.62-16.32,19-18.37l-3.61,10.6-.62.3A22,22,0,0,0,40.36,64.8c-3.47,8.69-1,18.54,5.64,22.92a.53.53,0,0,0,.24.08,13,13,0,0,0,2.89,1.63,12.8,12.8,0,0,0,4.76.92,14.6,14.6,0,0,0,6.89-1.81,19,19,0,0,0,8.57-9.84c.24-.59.44-1.19.62-1.79a.66.66,0,0,0,.12-.17c3.57-9,1.29-18.52-5-22.84a.15.15,0,0,0,0-.07L65,53.41l0-.07L61.4,42.57a12.78,12.78,0,0,1,3.1.8C75.93,47.35,81.31,61.8,76.51,75.59Z"/>
  <path class="cls-1" d="M56.73,49.61a.7.7,0,0,1,.24-.49.91.91,0,0,0-.43.73A1.16,1.16,0,0,0,57.72,51c.69,0,1.41-.55,1.31-1.1a1.07,1.07,0,0,0-.5-.76.69.69,0,0,1,.28.52,1.08,1.08,0,0,1-2.08,0Z"/>
</svg>
