<svg xmlns="http://www.w3.org/2000/svg" width="40.58" height="84.51" viewBox="0 0 40.58 84.51">
  <defs>
    <style>
      .cls-1 {
        fill: #fff;
      }
    </style>
  </defs>
  <path class="cls-1" d="M40.58,16.44l-.17-.17c-.17-.18-4.45-4.44-15.87-6.46H21.71a2,2,0,0,0,0-.24l0-2.14s0-.84-.74-.81h0V.88a.88.88,0,1,0-1.75,0V6.62h0c-.73,0-.73.81-.73.81l0,2.14a1,1,0,0,0,0,.24H15.65l-.11,0C15.16,9.9,6.09,11.9.23,16L0,16.19l0,.28c0,.24,2,24.3.19,43.32C.21,60,.25,83.06,20,84.51c.2,0,20.31-.48,20.31-24.94,0-.23-1.6-23.17.28-42.9ZM24.41,10.8l.08,0V40.89c0,2.51-.61,4.32-1.74,5.38a3.34,3.34,0,0,1-2.31,1c-3.62-.22-3.7-6.44-3.7-6.51l-.5-29.92ZM39.27,59.6C39.27,83,20.74,83.5,20,83.51c-7.84-.58-13.38-4.72-16.47-12.3A33.67,33.67,0,0,1,1.21,59.84c1.7-17.93.05-40.37-.17-43.16C6,13.3,13.3,11.38,15.24,10.91l.5,29.82c0,.3.09,7.22,4.64,7.5h.09A4.44,4.44,0,0,0,23.41,47c1.35-1.26,2.05-3.31,2.08-6.12V11c9.07,1.8,13.21,5.07,14.05,5.81C37.68,36.58,39.25,59.41,39.27,59.6Z"/>
  <path class="cls-1" d="M19.87,28.18h1.29a2.66,2.66,0,0,0,2.66-2.65v-6a2.67,2.67,0,0,0-2.66-2.66H19.87a2.66,2.66,0,0,0-2.66,2.66v6A2.66,2.66,0,0,0,19.87,28.18Zm-1.66-8.69a1.66,1.66,0,0,1,1.66-1.66h1.29a1.66,1.66,0,0,1,1.66,1.66v6a1.66,1.66,0,0,1-1.66,1.65H19.87a1.65,1.65,0,0,1-1.66-1.65Z"/>
  <path class="cls-1" d="M19.74,26h1.55a.5.5,0,0,0,.5-.5.51.51,0,0,0-.5-.5H19.74a.51.51,0,0,0-.5.5A.5.5,0,0,0,19.74,26Z"/>
  <path class="cls-1" d="M19.74,24h1.55a.5.5,0,0,0,.5-.5.51.51,0,0,0-.5-.5H19.74a.51.51,0,0,0-.5.5A.5.5,0,0,0,19.74,24Z"/>
  <path class="cls-1" d="M19.74,22h1.55a.5.5,0,0,0,.5-.5.51.51,0,0,0-.5-.5H19.74a.51.51,0,0,0-.5.5A.5.5,0,0,0,19.74,22Z"/>
  <path class="cls-1" d="M19.74,20h1.55a.5.5,0,0,0,.5-.5.51.51,0,0,0-.5-.5H19.74a.51.51,0,0,0-.5.5A.5.5,0,0,0,19.74,20Z"/>
  <path class="cls-1" d="M20.5,33.42a2.42,2.42,0,0,0-2.42,2.41v7.38a2.42,2.42,0,0,0,4.84,0V35.83A2.42,2.42,0,0,0,20.5,33.42Zm1.42,9.79a1.42,1.42,0,0,1-2.84,0V40h2.84Zm0-4.26H19.08V35.83a1.42,1.42,0,0,1,2.84,0Z"/>
</svg>
