<svg xmlns="http://www.w3.org/2000/svg" width="45.59" height="75.79" viewBox="0 0 45.59 75.79">
  <defs>
    <style>
      .cls-1 {
        fill: #fff;
      }
    </style>
  </defs>
  <title>Asset 136</title>
  <g id="Layer_2" data-name="Layer 2">
    <g id="Layer_1-2" data-name="Layer 1">
      <g>
        <path class="cls-1" d="M45.34,39.25c0-.19-1.4-18.55-.61-25.77l.2-2.68c0-.32-.5-7.86-16.19-10.79h0L22,0C21.42.09,6.79,1.69,5.24,9c0,.08-.66,7.77.87,23.7,0,.05-.45,5.32-4.58,13.06-.07.14-6.81,13.57,8.59,26a18.22,18.22,0,0,0,7.11,3.42,21.13,21.13,0,0,0,5.07.61,26.08,26.08,0,0,0,13.36-4C36.14,71.56,47.43,65.11,45.34,39.25Zm-4.62-7.08a.66.66,0,0,1-.3.63c-1.68.08-2.11-.36-2.12-.36l-7.5-7.19c-1.36-1.24-1.26-4.42-1.26-4.48L29.28,1.14c6.23,1.26,9.81,3.28,11.87,5.15a.43.43,0,0,0,0,.11C41.11,7.42,40.69,31.29,40.72,32.17ZM20,25.26l-7.5,7.16a5.47,5.47,0,0,1-2.13.14c-.17-.09-.59-.37-.56-.77v-.13A124.55,124.55,0,0,1,8.45,5.89s0-.07,0-.11c3.76-3.2,11-4.4,13.08-4.69L21.26,20.8C21.29,21.69,21.13,24.22,20,25.26Zm-17.59,21A44.55,44.55,0,0,0,6.73,35.07c1,5.21,1.39,11.41,1.39,11.47a149.28,149.28,0,0,1-.28,17.57c-.08.57-.28,1.27-.71,1.38-.8.21-2.41-1.23-3.3-2.32A.37.37,0,0,0,3.68,63C-1.52,54.15,2.2,46.65,2.41,46.25ZM35.16,71c-14.36,8.51-24.28.13-24.4,0a32.83,32.83,0,0,1-4.85-4.77A2.5,2.5,0,0,0,7,66.51a1.54,1.54,0,0,0,.43-.05c.76-.21,1.24-.95,1.43-2.23a151.41,151.41,0,0,0,.29-17.74A102.63,102.63,0,0,0,7.09,32a.93.93,0,0,0,0-.1C5.61,16.56,6.23,9.19,6.23,9.17A5.43,5.43,0,0,1,7.42,6.8a125.9,125.9,0,0,0,1.39,25A2,2,0,0,0,10,33.51l.18.05.86,0c1.31,0,2-.19,2.29-.6l7.32-7c1.7-1.55,1.58-5.08,1.57-5.21L22.52,1l5.76,0,.27,19.76c0,.15-.13,3.68,1.56,5.22l7.37,7c.19.24.81.79,2.58.79l.52,0,.14,0a1.62,1.62,0,0,0,1-1.62c0-.66.24-16.09.39-24.88a6.92,6.92,0,0,1,1.83,3.52l-.2,2.61a70.35,70.35,0,0,0-.25,7.75c-.1,1.45-1.85,25.8-5.57,43.22-.1.3-.55,1.8.22,2.47a1.17,1.17,0,0,0,.8.28h0A13.77,13.77,0,0,1,35.16,71Zm4.67-5.14c-.67.33-1,.31-1,.25s-.12-.81.09-1.45c2.44-11.42,4-25.77,4.88-34.78.24,5,.55,9.13.58,9.48C45.45,53.11,42.63,61.26,39.83,65.82Z"/>
        <path class="cls-1" d="M26.13,16.68H24.58a.51.51,0,0,0-.5.5.5.5,0,0,0,.5.5h1.55a.5.5,0,0,0,.5-.5A.51.51,0,0,0,26.13,16.68Z"/>
        <path class="cls-1" d="M26.13,14.68H24.58a.51.51,0,0,0-.5.5.5.5,0,0,0,.5.5h1.55a.5.5,0,0,0,.5-.5A.51.51,0,0,0,26.13,14.68Z"/>
        <path class="cls-1" d="M26.13,12.68H24.58a.51.51,0,0,0-.5.5.5.5,0,0,0,.5.5h1.55a.5.5,0,0,0,.5-.5A.51.51,0,0,0,26.13,12.68Z"/>
        <path class="cls-1" d="M26.13,10.68H24.58a.51.51,0,0,0-.5.5.5.5,0,0,0,.5.5h1.55a.5.5,0,0,0,.5-.5A.51.51,0,0,0,26.13,10.68Z"/>
        <path class="cls-1" d="M25.77,8.65H25A2.39,2.39,0,0,0,22.59,11v7.07A2.4,2.4,0,0,0,25,20.51h.79a2.41,2.41,0,0,0,2.4-2.4V11A2.4,2.4,0,0,0,25.77,8.65Zm1.4,9.46a1.4,1.4,0,0,1-1.4,1.4H25a1.4,1.4,0,0,1-1.39-1.4V11A1.39,1.39,0,0,1,25,9.65h.79A1.4,1.4,0,0,1,27.17,11Z"/>
        <path class="cls-1" d="M25.33,26.82a.8.8,0,0,0-.79.79v2.92a.8.8,0,0,0,1.59,0V27.61A.8.8,0,0,0,25.33,26.82Z"/>
      </g>
    </g>
  </g>
</svg>
