<svg xmlns="http://www.w3.org/2000/svg" width="42.92" height="88.82" viewBox="0 0 42.92 88.82"><defs><style>.cls-1{fill:#fff;}</style></defs><g id="Layer_2" data-name="Layer 2"><g id="Layer_1-2" data-name="Layer 1"><path class="cls-1" d="M20.65,26.91h1.54a.5.5,0,0,0,0-1H20.65a.5.5,0,0,0,0,1Z"/><path class="cls-1" d="M20.65,24.91h1.54a.5.5,0,0,0,0-1H20.65a.5.5,0,0,0,0,1Z"/><path class="cls-1" d="M20.65,22.91h1.54a.5.5,0,0,0,0-1H20.65a.5.5,0,0,0,0,1Z"/><path class="cls-1" d="M20.65,20.91h1.54a.5.5,0,0,0,0-1H20.65a.5.5,0,0,0,0,1Z"/><path class="cls-1" d="M21.05,29.73h.79a2.39,2.39,0,0,0,2.39-2.4V20.27a2.4,2.4,0,0,0-2.39-2.4h-.79a2.41,2.41,0,0,0-2.4,2.4v7.06A2.4,2.4,0,0,0,21.05,29.73Zm-1.4-9.46a1.4,1.4,0,0,1,1.4-1.4h.79a1.4,1.4,0,0,1,1.39,1.4v7.06a1.39,1.39,0,0,1-1.39,1.4h-.79a1.4,1.4,0,0,1-1.4-1.4Z"/><path class="cls-1" d="M22.19,39.76V36.84a.79.79,0,0,0-1.58,0v2.92a.79.79,0,0,0,1.58,0Z"/><path class="cls-1" d="M42.77,64s-.3-3.46-1-7.68c0,0-.47-3.89-.47-5.53L41.1,23.34c0-.56-.15-2.44-1-2.95a.93.93,0,0,0-.33-.12c-.31-1.05-1.26-3.73-3.09-4.72-.14-.11-3.54-2.7-11-5.53l-1.14-.19H23.21V9.67a.11.11,0,0,0-.1-.1h-.69V8.88h.7a.09.09,0,0,0,.1-.1V7.05a.1.1,0,0,0-.1-.1h-.7V5.85h.7a.09.09,0,0,0,.1-.09V5.43a.1.1,0,0,0-.1-.1h-.7V.88a.88.88,0,1,0-1.75,0V5.33H20a.11.11,0,0,0-.1.1v.33a.1.1,0,0,0,.1.09h.67V7H20a.11.11,0,0,0-.1.1V8.78a.1.1,0,0,0,.1.1h.67v.69H20a.1.1,0,0,0-.1.1v.19H18.52l-1.38.21A65.82,65.82,0,0,0,6,15.61a7.54,7.54,0,0,0-2.85,4.65.87.87,0,0,0-.22,0,1.41,1.41,0,0,0-.79,1.16c0,.13-.58,3.17-.41,13.84a3.56,3.56,0,0,0-.8,2.15,165.2,165.2,0,0,0,.4,16.87s-.41,4-1.2,9.76c0,.32-1,7.89,2.8,14.45A23.17,23.17,0,0,0,21.5,88.82h0c.46,0,12.15-.13,18.37-10.41A23.41,23.41,0,0,0,42.77,64ZM26.05,34.62V11.22a45.09,45.09,0,0,1,10.11,5.17c1.93,1,2.78,4.49,2.78,4.53l.12.57h0c.77,7.33-.06,19.27-.46,24.14a.49.49,0,0,0-.39-.26l-2-.15L28.1,39.79C26,37.92,26.05,34.67,26.05,34.62ZM4,21.81l0,0,.07-.92a6.57,6.57,0,0,1,2.47-4.47,67.38,67.38,0,0,1,10.27-5.19v24s-.3,3.19-2.24,4.6-7,4.77-7.79,5.32l-2.16.13a.66.66,0,0,0-.2.06C4.05,40.43,3.27,29.05,4,21.81ZM2.81,76a25.43,25.43,0,0,1-1.68-11.8c.8-5.75,1.2-9.76,1.21-9.9a167.46,167.46,0,0,1-.4-16.81,2.46,2.46,0,0,1,.61-1.62l.2-.15V35.5c0-1.63,0-3.07,0-4.36.13,8.23.94,16.59,1,16.72A88.46,88.46,0,0,1,2.81,76ZM39,77.88c-6,10-17.39,10-17.52,9.94A22.11,22.11,0,0,1,3.81,78c-.12-.19-.21-.39-.31-.58,0,0,0,0,0,0S6.77,65.18,4.65,47.75c0,0-.05-.57-.13-1.48l.15,0h0l2.43-.15.12-.08s5.79-3.85,7.93-5.41c2.31-1.68,2.64-5.18,2.65-5.37V11l.73-.11,5.9,0,.59.1V34.61a8.36,8.36,0,0,0,2.43,6l8.36,5.61,2.3.18h0a.49.49,0,0,0,.38-.19c-.08,1-.14,1.6-.14,1.62-1.92,15.81.52,27.16,1,29.27a.05.05,0,0,0,0,0C39.22,77.59,39.05,77.86,39,77.88Zm1.12-2.26a88.84,88.84,0,0,1-.75-27.72c0-.09.53-5.52.81-11.92l.13,14.86c0,1.69.46,5.48.48,5.66.65,4.2,1,7.59,1,7.64A23.56,23.56,0,0,1,40.16,75.62Z"/><polygon class="cls-1" points="11.23 66.92 10.08 66.34 9.08 66.86 9.03 68.09 10.05 68.72 11.2 68.12 11.23 66.92"/><polygon class="cls-1" points="12.82 69.66 11.67 69.08 10.68 69.61 10.63 70.83 11.64 71.46 12.79 70.86 12.82 69.66"/><polygon class="cls-1" points="13.89 70.86 14.91 71.49 16.06 70.89 16.09 69.69 14.94 69.11 13.94 69.63 13.89 70.86"/><polygon class="cls-1" points="19.3 70.89 19.33 69.69 18.18 69.11 17.18 69.63 17.13 70.86 18.15 71.49 19.3 70.89"/><polygon class="cls-1" points="20.35 70.89 21.37 71.52 22.52 70.91 22.54 69.71 21.39 69.14 20.4 69.66 20.35 70.89"/><polygon class="cls-1" points="23.61 70.86 24.63 71.49 25.78 70.89 25.81 69.69 24.66 69.11 23.66 69.63 23.61 70.86"/><polygon class="cls-1" points="29 70.89 29.02 69.69 27.87 69.11 26.88 69.63 26.83 70.86 27.85 71.49 29 70.89"/><polygon class="cls-1" points="30.12 69.61 30.07 70.83 31.09 71.46 32.24 70.86 32.26 69.66 31.11 69.08 30.12 69.61"/><polygon class="cls-1" points="14.39 73.66 14.41 72.45 13.26 71.88 12.27 72.4 12.22 73.63 13.24 74.26 14.39 73.66"/><polygon class="cls-1" points="15.49 73.66 16.5 74.28 17.66 73.68 17.68 72.48 16.53 71.91 15.54 72.43 15.49 73.66"/><polygon class="cls-1" points="20.89 73.68 20.92 72.48 19.77 71.91 18.78 72.43 18.73 73.66 19.75 74.28 20.89 73.68"/><polygon class="cls-1" points="24.11 73.71 24.14 72.51 22.99 71.93 21.99 72.45 21.94 73.68 22.96 74.31 24.11 73.71"/><polygon class="cls-1" points="25.21 73.66 26.23 74.28 27.38 73.68 27.4 72.48 26.25 71.91 25.26 72.43 25.21 73.66"/><polygon class="cls-1" points="30.59 73.68 30.62 72.48 29.47 71.91 28.47 72.43 28.42 73.66 29.44 74.28 30.59 73.68"/><polygon class="cls-1" points="14.47 78.07 13.32 77.5 12.32 78.02 12.27 79.25 13.29 79.88 14.44 79.28 14.47 78.07"/><polygon class="cls-1" points="17.73 78.1 16.58 77.53 15.59 78.05 15.54 79.28 16.56 79.9 17.71 79.3 17.73 78.1"/><polygon class="cls-1" points="20.97 78.1 19.82 77.53 18.83 78.05 18.78 79.28 19.8 79.9 20.95 79.3 20.97 78.1"/><polygon class="cls-1" points="24.19 78.13 23.04 77.55 22.05 78.07 21.99 79.3 23.01 79.93 24.16 79.33 24.19 78.13"/><polygon class="cls-1" points="27.45 78.1 26.3 77.53 25.31 78.05 25.26 79.28 26.28 79.9 27.43 79.3 27.45 78.1"/><polygon class="cls-1" points="28.53 78.05 28.47 79.28 29.49 79.9 30.64 79.3 30.67 78.1 29.52 77.53 28.53 78.05"/><polygon class="cls-1" points="13.92 75.2 13.87 76.43 14.88 77.06 16.03 76.45 16.06 75.25 14.91 74.68 13.92 75.2"/><polygon class="cls-1" points="17.16 75.2 17.11 76.43 18.13 77.06 19.27 76.45 19.3 75.25 18.15 74.68 17.16 75.2"/><polygon class="cls-1" points="22.49 76.48 22.52 75.28 21.37 74.7 20.37 75.23 20.32 76.45 21.34 77.08 22.49 76.48"/><polygon class="cls-1" points="25.76 76.45 25.78 75.25 24.63 74.68 23.64 75.2 23.59 76.43 24.61 77.06 25.76 76.45"/><polygon class="cls-1" points="26.85 75.2 26.8 76.43 27.82 77.06 28.97 76.45 29 75.25 27.85 74.68 26.85 75.2"/><polygon class="cls-1" points="13.94 80.84 13.89 82.07 14.91 82.7 16.06 82.1 16.09 80.9 14.94 80.32 13.94 80.84"/><polygon class="cls-1" points="17.18 80.84 17.13 82.07 18.15 82.7 19.3 82.1 19.33 80.9 18.18 80.32 17.18 80.84"/><polygon class="cls-1" points="20.4 80.87 20.35 82.1 21.37 82.73 22.52 82.13 22.54 80.92 21.39 80.35 20.4 80.87"/><polygon class="cls-1" points="23.66 80.84 23.61 82.07 24.63 82.7 25.78 82.1 25.81 80.9 24.66 80.32 23.66 80.84"/><polygon class="cls-1" points="26.88 80.84 26.83 82.07 27.85 82.7 29 82.1 29.02 80.9 27.87 80.32 26.88 80.84"/><polygon class="cls-1" points="14.39 68.06 14.41 66.86 13.26 66.29 12.27 66.81 12.22 68.04 13.24 68.67 14.39 68.06"/><polygon class="cls-1" points="30.59 68.09 30.62 66.89 29.47 66.31 28.47 66.84 28.42 68.06 29.44 68.69 30.59 68.09"/><polygon class="cls-1" points="31.71 66.84 31.66 68.06 32.68 68.69 33.83 68.09 33.86 66.89 32.71 66.31 31.71 66.84"/></g></g></svg>