<svg xmlns="http://www.w3.org/2000/svg" width="40.65" height="83.62" viewBox="0 0 40.65 83.62">
  <defs>
    <style>
      .cls-1 {
        fill: #fff;
      }
    </style>
  </defs>
  <path class="cls-1" d="M40.41,46.1l-1-24,.67-5.28a1.77,1.77,0,0,0-.14-1.28,1.8,1.8,0,0,0-1.19-.85L25.06,10.39a2.29,2.29,0,0,0-1.72.07,1,1,0,0,0-.43.78v2h-.49V10.61a1.8,1.8,0,0,0-1-1.78s0-.05,0-.07V.88a.88.88,0,1,0-1.75,0V8.76a.43.43,0,0,1,0,.05,1.8,1.8,0,0,0-1,1.79l0,2.64h-.39V11a.78.78,0,0,0-.34-.57c-.42-.28-1.12-.25-2.18.11l-13.72,4a2.05,2.05,0,0,0-1.26,2L2.22,25A149.76,149.76,0,0,1,.73,53.12c0,.36-1.13,8.86-.57,12.2a20,20,0,0,0,2.55,8.41c2.22,3.94,6.89,8.86,16.49,9.89h.32c2.41,0,17.59-.72,20.56-18.6C40.12,64.88,41.09,61.57,40.41,46.1ZM16.07,11.53a3.78,3.78,0,0,1,1.15-.25h.07v3h2.38l0-3.64c0-.68.25-1,.86-1s.85.29.85,1v3.66h2.49v-3a1.55,1.55,0,0,1,.86.05l13.33,4.14a250.94,250.94,0,0,0-3.18,33.3,34.06,34.06,0,0,0,.7,9.27c2.9,11.41-3.8,18-4.63,18.8-12,2.93-20.91.37-22,0-6.54-7.32-3.52-18-3.49-18.11a42.16,42.16,0,0,0,1.4-9.19c.56-15.27-3.29-31.31-4-34.18ZM5.64,52.26A1.33,1.33,0,0,1,5.19,51l.17-4.77a2.27,2.27,0,0,1,.52-1.61c0,1.64,0,3.29,0,4.94C5.85,49.56,5.8,50.69,5.64,52.26ZM4.85,35.34a2.29,2.29,0,0,1,.28-1.55c.27,2.41.5,5,.63,7.53a1.29,1.29,0,0,1-.59-1.23ZM7.52,78.05A18.64,18.64,0,0,1,1.15,65.22c-.54-3.26.56-11.89.57-12a151.84,151.84,0,0,0,1.5-28.34L1.79,16.48a1,1,0,0,1,.15-.54A146.25,146.25,0,0,1,5,32.52a2.91,2.91,0,0,0-1.13,2.91l.32,4.66a2.15,2.15,0,0,0,1.64,2.3c0,.33,0,.66,0,1a2.85,2.85,0,0,0-1.49,2.82L4.2,50.88A2.16,2.16,0,0,0,5.53,53.3a31.69,31.69,0,0,1-1,5.18c0,.11-3.09,10.9,3.34,18.62Zm11.76,4.57A21.93,21.93,0,0,1,8.36,78.7l.28-.88A37.22,37.22,0,0,0,19.5,79.26a49.22,49.22,0,0,0,11.67-1.43l.43.78A20.07,20.07,0,0,1,19.28,82.62ZM39.11,64.78C38,71.21,35.4,75.32,32.38,78l-.38-.7a18.28,18.28,0,0,0,3.3-4.71A21,21,0,0,0,36.58,57.8a33.22,33.22,0,0,1-.67-9A248.37,248.37,0,0,1,39,15.94l0,0a.8.8,0,0,1,0,.58L38.41,22l1,24.13C40.08,61.29,39.13,64.69,39.11,64.78Z"/>
  <path class="cls-1" d="M20.34,47.54a.5.5,0,0,0,1,0V45.43l3.72-1.78V36.31A2.08,2.08,0,0,0,23,34.23H18.74a2.08,2.08,0,0,0-2.08,2.08v7.34l3.68,1.78ZM17.66,43V36.31a1.08,1.08,0,0,1,1.08-1.08h1.63a.35.35,0,0,0,0,.14v.49h-.41a1.55,1.55,0,0,0-1.56,1.55v5l2.47,1.24,2.51-1.24v-5a1.55,1.55,0,0,0-1.56-1.55h-.45v-.49a.7.7,0,0,0,0-.14H23a1.08,1.08,0,0,1,1.08,1.08V43l-3.22,1.54Zm4.13-6.16a.56.56,0,0,1,.56.55v4.36l-1.5.74-1.48-.73V37.41a.56.56,0,0,1,.56-.55Z"/>
  <path class="cls-1" d="M20.1,28.18h1a3.28,3.28,0,0,0,3.28-3.27V20.1a3.28,3.28,0,0,0-3.28-3.27h-1a3.28,3.28,0,0,0-3.28,3.27v4.81A3.28,3.28,0,0,0,20.1,28.18ZM17.82,20.1a2.28,2.28,0,0,1,2.28-2.27h1a2.28,2.28,0,0,1,2.28,2.27v4.81a2.28,2.28,0,0,1-2.28,2.27h-1a2.28,2.28,0,0,1-2.28-2.27Z"/>
  <path class="cls-1" d="M19.36,26H21.9a.5.5,0,0,0,.5-.5.51.51,0,0,0-.5-.5H19.36a.5.5,0,0,0-.5.5A.5.5,0,0,0,19.36,26Z"/>
  <path class="cls-1" d="M19.36,24H21.9a.5.5,0,0,0,.5-.5.51.51,0,0,0-.5-.5H19.36a.5.5,0,0,0-.5.5A.5.5,0,0,0,19.36,24Z"/>
  <path class="cls-1" d="M19.36,22H21.9a.5.5,0,0,0,.5-.5.51.51,0,0,0-.5-.5H19.36a.5.5,0,0,0-.5.5A.5.5,0,0,0,19.36,22Z"/>
  <path class="cls-1" d="M19.36,20H21.9a.5.5,0,0,0,.5-.5.51.51,0,0,0-.5-.5H19.36a.5.5,0,0,0-.5.5A.5.5,0,0,0,19.36,20Z"/>
</svg>
