<svg xmlns="http://www.w3.org/2000/svg" width="43.5" height="87.07" viewBox="0 0 43.5 87.07">
  <defs>
    <style>
      .cls-1 {
        fill: #fff;
      }
    </style>
  </defs>
  <title>Asset 143</title>
  <g id="Layer_2" data-name="Layer 2">
    <g id="Layer_1-2" data-name="Layer 1">
      <g>
        <path class="cls-1" d="M24.57,24.91H23a.5.5,0,0,0,0,1h1.55a.5.5,0,0,0,0-1Z"/>
        <path class="cls-1" d="M24.57,22.91H23a.5.5,0,0,0,0,1h1.55a.5.5,0,0,0,0-1Z"/>
        <path class="cls-1" d="M24.57,20.91H23a.5.5,0,0,0,0,1h1.55a.5.5,0,0,0,0-1Z"/>
        <path class="cls-1" d="M24.57,18.91H23a.5.5,0,0,0,0,1h1.55a.5.5,0,0,0,0-1Z"/>
        <path class="cls-1" d="M24.21,16.87h-.78a2.4,2.4,0,0,0-2.4,2.4v7.06a2.39,2.39,0,0,0,2.4,2.4h.78a2.4,2.4,0,0,0,2.4-2.4V19.27A2.41,2.41,0,0,0,24.21,16.87Zm1.4,9.46a1.4,1.4,0,0,1-1.4,1.4h-.78a1.39,1.39,0,0,1-1.4-1.4V19.27a1.4,1.4,0,0,1,1.4-1.4h.78a1.4,1.4,0,0,1,1.4,1.4Z"/>
        <path class="cls-1" d="M23.77,35.05a.79.79,0,0,0-.79.79v2.92a.8.8,0,0,0,1.59,0V35.84A.79.79,0,0,0,23.77,35.05Z"/>
        <path class="cls-1" d="M43.41,21.59c0-.17.62-4.3-1.55-6.28-.16-.15-3.93-3.59-13.75-5.3a13.68,13.68,0,0,0-2.54-.26,1.1,1.1,0,0,0,0-.18l0-2.14s0-.84-.73-.81h0V.88A.88.88,0,1,0,23,.88V6.62h0c-.74,0-.74.81-.74.81l0,2.14a1.66,1.66,0,0,0,0,.22c-.9,0-1.93.11-3.08.22A71.33,71.33,0,0,0,7.13,14.2c-.11.06-2.67,1.49-2.92,3.91,0,.2-1,4.25.17,15.32a2,2,0,0,0-1,.86,3.42,3.42,0,0,0-.19,2.3c.93,5.54.17,8.42.17,8.44C-1,59.15.13,66.05.18,66.34a.78.78,0,0,0,.05.14h0l0,.35C.25,67,2,85.17,21.55,87a8.61,8.61,0,0,0,1.21.06,17.18,17.18,0,0,0,14.75-7.95c.29-.33,7.18-8.37,4.38-28.09,0-.1-1.27-9.25-1.1-12.52Zm-2.22-5.54c-.11.53-2.37,12.19-3.9,26.33a.39.39,0,0,0-.08.1c-.4.74-.84,1.13-1.3,1.16-.73.07-1.49-.77-1.74-1.12l-5-5.77c-1.44-1.44-1.06-4.08-1.06-4.16.71-13.67.63-20.45.61-21.44C37.63,12.85,41.14,16,41.18,16Zm-33.61-1a69.25,69.25,0,0,1,11.27-4c0,1.21-.2,9.46.61,20.59,0,0,.49,3.37-1.22,4.93l-7.4,7.18a1,1,0,0,1-.78.32c-.45-.06-.92-.55-1.36-1.41C6.82,28.19,6.47,17.27,6.44,16A6.45,6.45,0,0,1,7.58,15.09ZM4.27,45.31c0-.12.83-3.1-.16-8.94a2.39,2.39,0,0,1,.1-1.58.93.93,0,0,1,.28-.31c.23,2.09.53,4.42.92,7,0,.21,2.47,20.23-4.26,24.52C1,64.94.33,58.08,4.27,45.31Zm2.13-4c-2.56-17-1.24-22.94-1.21-23.06a3.06,3.06,0,0,1,.29-1c.14,3.62.67,13.75,2.35,26.49,0,.21,1.65,20.35-2.14,34A23.34,23.34,0,0,1,1.27,67.09C9,63,6.52,42.25,6.4,41.34ZM21.66,86c-7.46-.7-12.2-3.8-15.22-7.31l0-.06c3.57-12.17,2.68-29.84,2.4-34a2,2,0,0,0,1,.5h.22a2,2,0,0,0,1.4-.63l7.37-7.15c2.08-1.9,1.55-5.64,1.53-5.76-.87-11.91-.61-20.52-.61-20.61s0,0,0,0c5.24-.45,7.49-.08,7.93,0,0,0,0,0,0,.08s.15,6.78-.6,21.45c0,.13-.45,3.17,1.32,4.94l4.89,5.71a3.63,3.63,0,0,0,2.47,1.5H36a2,2,0,0,0,1.13-.44c-1.16,11.44-1.77,24.22-.34,33.94a.5.5,0,0,0,.09.21l-.14.18C31.35,87.08,21.77,86,21.66,86ZM40.9,51.17c2.1,14.83-1.47,23-3.26,26C34.92,56.66,40.83,23.35,42,17.21a8.94,8.94,0,0,1,.44,4.23l-2.62,17C39.62,41.83,40.85,50.78,40.9,51.17Z"/>
      </g>
    </g>
  </g>
</svg>
