<svg xmlns="http://www.w3.org/2000/svg" width="39.46" height="84.47" viewBox="0 0 39.46 84.47">
  <defs>
    <style>
      .cls-1 {
        fill: #fff;
      }
    </style>
  </defs>
  <path class="cls-1" d="M39,54a119.45,119.45,0,0,1-.37-12l-.13-8.73.57-13.58a6.78,6.78,0,0,0-2.69-5.14,26.86,26.86,0,0,0-13-5H21.52c0-.4-.23-.72-.5-.72h-.41V.88a.88.88,0,1,0-1.75,0v7.9h-.38c-.28,0-.5.32-.5.72H16.21A28.07,28.07,0,0,0,3.52,14,7.66,7.66,0,0,0,.29,19L.42,29.56.36,40l.31,4.94L.11,53.12l.06,2.75c0,.15-2,15.07,8,23.46a.35.35,0,0,0,.11.1l.13.11A18.33,18.33,0,0,0,19,84.44c.05,0,.32,0,.76,0A15.47,15.47,0,0,0,30.48,79.9C30.59,79.81,41.74,70.83,39,54ZM21.23,37A1.22,1.22,0,0,0,20,35.86H19.2A1.24,1.24,0,0,0,18,37l-.45,2.82-.16-.68V29.5A2.47,2.47,0,0,0,19,30h1.37a2.55,2.55,0,0,0,1.55-.54c0,2.94,0,6.77,0,9.77l-.09.41Zm0,5.22-.42,2a1.29,1.29,0,0,1-.51.73H19a3.26,3.26,0,0,1-.34-.78l-.44-1.85a.19.19,0,0,0,0-.08L19,37.14c0-.12.07-.27.21-.28H20s.15,0,.2.31l1,5S21.23,42.18,21.23,42.2Zm.62-14.7A1.54,1.54,0,0,1,20.32,29H19a1.54,1.54,0,0,1-1.53-1.53V18.62A1.54,1.54,0,0,1,19,17.08h1.37a1.54,1.54,0,0,1,1.53,1.54v6.62h0V27.4S21.85,27.46,21.85,27.5ZM1.17,55.93l-.06-2.79.36-5.27C2.75,56.5,5,70.05,7.34,77.17-.55,69,1.14,56.14,1.17,55.93ZM29.91,79a.57.57,0,0,0,0,.14l-.05.05a14.5,14.5,0,0,1-10.74,4.29c-5.67-.42-9.89-4.56-10-4.64A1.07,1.07,0,0,1,9,78.66c-3.7-9-7.49-38-7.59-38.75l.06-10.35L1.29,19.07a6.66,6.66,0,0,1,2.78-4.21A27.44,27.44,0,0,1,16.23,10.5h3v5.58H19a2.54,2.54,0,0,0-2.53,2.54V39.23l1.23,5.22c.29,1,.69,1.53,1.19,1.53h1.67l.09,0a2.2,2.2,0,0,0,1.18-1.45l1-5.08,0-.1c.05-10.45.06-13.49-.06-14.42h.07V18.62a2.54,2.54,0,0,0-2.53-2.54h-.07V10.5h3.08a26.47,26.47,0,0,1,12.48,4.84,5.86,5.86,0,0,1,2.3,4.33l-.57,13.59.12,7.91a.78.78,0,0,0,0,.14C37.57,41.62,33.33,72.48,29.91,79Zm1.77-1.65c2.32-6.6,4.74-21.23,6-29.64.1,3.84.34,6.41.35,6.47A27.54,27.54,0,0,1,31.68,77.31Z"/>
  <path class="cls-1" d="M20.79,26.19H18.38a.5.5,0,0,0,0,1h2.41a.5.5,0,0,0,0-1Z"/>
  <path class="cls-1" d="M20.79,24.19H18.38a.5.5,0,0,0,0,1h2.41a.5.5,0,0,0,0-1Z"/>
  <path class="cls-1" d="M20.79,22.19H18.38a.5.5,0,0,0,0,1h2.41a.5.5,0,0,0,0-1Z"/>
  <path class="cls-1" d="M20.79,20.19H18.38a.5.5,0,0,0,0,1h2.41a.5.5,0,0,0,0-1Z"/>
  <path class="cls-1" d="M20.79,18.19H18.38a.5.5,0,0,0,0,1h2.41a.5.5,0,0,0,0-1Z"/>
</svg>
