<svg xmlns="http://www.w3.org/2000/svg" width="101.94" height="32.4" viewBox="0 0 101.94 32.4">
  <defs>
    <style>
      .cls-1 {
        fill: #fff;
      }
    </style>
  </defs>
  <path class="cls-1" d="M101.2,7c-.09-.11-2.16-2.67-3.06-3.68l0,0a3.37,3.37,0,0,0-1.91-1h0c-.07,0-7.06-1.35-9.2-2.1a3.21,3.21,0,0,0-2.45,0A2.48,2.48,0,0,0,83.26,2s-1.69,4.15-3.32,7.75a1.4,1.4,0,0,0-.15.81l-1.51,5.1a2.66,2.66,0,0,0,.36,1.9,2.08,2.08,0,0,0,1.4.83L93,22.55a4.74,4.74,0,0,0,1.81.43,2.41,2.41,0,0,0,1.1-.24,2.26,2.26,0,0,0,1.17-1.65l4.57-10.91A2.88,2.88,0,0,0,101.2,7ZM84.59,2.4a1.27,1.27,0,0,1,.57-.88,1.27,1.27,0,0,1,.57-.12,2.23,2.23,0,0,1,.76.14c2.25.79,9.05,2.09,9.42,2.16a1.74,1.74,0,0,1,1.24.68,1.08,1.08,0,0,1-.07.85l-2.73,7a1.17,1.17,0,0,1-.57.86,2,2,0,0,1-1.42,0L82.25,10.87c-.88-.19-1-.44-1.06-.53C82.86,6.66,84.54,2.53,84.59,2.4Zm9,18.87L80.42,17l-.12,0a.66.66,0,0,1-.51-.26,1.22,1.22,0,0,1-.15-.76l1.21-4.09a4.64,4.64,0,0,0,1.11.38l10,2.24a3.85,3.85,0,0,0,1.22.2,3.13,3.13,0,0,0,.6-.06l1.59,6.82-.07,0A2.49,2.49,0,0,1,93.55,21.27ZM100.34,9.6l-4.07,9.73L95,13.93a2.63,2.63,0,0,0,.67-1.22l2.66-6.9,0-.07,1.78,2.16A1.54,1.54,0,0,1,100.34,9.6Z"/>
  <path class="cls-1" d="M75.89,20.46,68.54,8.79a2.31,2.31,0,0,0-1.3-1.15A2.29,2.29,0,0,0,65.33,8L52.24,15a2,2,0,0,0-1.12,1.13,2.4,2.4,0,0,0,.42,2.12L58.9,30.34a2.89,2.89,0,0,0,1.45,1.16,6.14,6.14,0,0,0,3.15.9,5.47,5.47,0,0,0,2-.4l8.26-4.76,2.6-4.39a.78.78,0,0,0,.09-.33A2.39,2.39,0,0,0,75.89,20.46Zm-1.14.8c.31.4.46.74.4.95a.74.74,0,0,1-.45.36l-1.3.75-6-9.88.05-3.8ZM62.37,29.59l-3.26-5.25,1.36-.74a3.28,3.28,0,0,0,2.68,1.73s.24,0,.54,0a4.71,4.71,0,0,0,1.4-.22l1,1.65a.7.7,0,0,0,.6.35l.06,0Zm4.16-14.85,1.85,3L67,18.52a3.29,3.29,0,0,0-3-2.05,3.26,3.26,0,0,0-2.08.76l-.06-.09ZM64,17.87a1.85,1.85,0,1,1-.06,3.7,1.78,1.78,0,0,1-1.82-1.82A1.88,1.88,0,0,1,64,17.87Zm-2.34,4.18a3.23,3.23,0,0,0,2.28.92,3.36,3.36,0,0,0,1.72-.47l-.06.63a2.49,2.49,0,0,1-2.24.81c-1.62-.22-1.76-1.23-1.77-1.52ZM61,18.4a3.65,3.65,0,0,0-.22.66s0,.06,0,.09l-.54,3-1.84,1-1.83-2.94,4.08-2.39Zm6.26,7.68-1-1.65a3.26,3.26,0,0,0,.58-.72l.08-.13L67.27,20l1.83-1L72.18,24l-5,2.82A.7.7,0,0,0,67.26,26.08ZM66,9.18h0L66,13.45,61.09,16l-.06-.1a.71.71,0,0,0-1-.2.7.7,0,0,0-.21,1h0l-4,2.32-.43-.4a.7.7,0,0,0-.1-.08l-2.5-2.29ZM53.39,18.56l1.09,1L61.1,30.18a.77.77,0,0,1-.26,0s-.05,0-.08,0a1.31,1.31,0,0,1-.65-.54ZM64.94,30.74a3.92,3.92,0,0,1-2.13.21l10.84-6.19-.85,1.45Z"/>
  <path class="cls-1" d="M46.47,6.67,28.61,5.92a9.21,9.21,0,0,1-3.32-1.56A23.65,23.65,0,0,0,13.28.3h-.17C1.25,3,.08,12.4,0,15.23H0c.08,2.83,1.26,12.24,13.11,14.91h.17a23.7,23.7,0,0,0,12-4.09,9.07,9.07,0,0,1,3.28-1.53l17.86-.75a.85.85,0,0,0,.81-.85V20.86a.87.87,0,0,0-.64-.83l-1.29-.31a1.13,1.13,0,0,0-.91.17,1,1,0,0,0-.35.77v0l-13.64-.16s-4.31-.1-6.77-1.88l-.35-.21-.32.09a.86.86,0,0,0-.53.45,8.55,8.55,0,0,1-16.26-3.7v-.09a8.55,8.55,0,0,1,16.24-3.73l.13.18a.92.92,0,0,0,1.19.13h0C26.2,10,30.4,10,30.44,10l13.65-.16v0a1,1,0,0,0,.35.77,1.11,1.11,0,0,0,.9.17l1.33-.32a.85.85,0,0,0,.61-.82V7.52A.84.84,0,0,0,46.47,6.67Zm-.59,2.51-.39.09v-.9l-15.06.18a15.53,15.53,0,0,0-7,1.75A9.95,9.95,0,0,0,4.82,15.1v.09a9.95,9.95,0,0,0,18.62,5,16.43,16.43,0,0,0,7,1.76l15.06.18v-.9l.39.09v1.14l-17.39.72-.12,0A10.16,10.16,0,0,0,24.5,25a22.78,22.78,0,0,1-11.16,3.81C2.86,26.37,1.5,18.54,1.4,15.24,1.5,11.93,2.86,4.1,13.34,1.7A22.73,22.73,0,0,1,24.46,5.48a10.31,10.31,0,0,0,3.91,1.83L45.88,8Z"/>
</svg>
