<svg xmlns="http://www.w3.org/2000/svg" width="151.65" height="46.15" viewBox="0 0 151.65 46.15">
  <defs>
    <style>
      .cls-1 {
        fill: #fff;
      }
    </style>
  </defs>
  <path class="cls-1" d="M15,41.15H98.53a1,1,0,0,0,1-1V13a1,1,0,0,0-1-1H15a1,1,0,0,0-1,1V40.18A1,1,0,0,0,15,41.15ZM15.4,13.4H98.09V39.75H15.4Z"/>
  <path class="cls-1" d="M128,41.15h18.56a1,1,0,0,0,1-1V13a1,1,0,0,0-1-1H128a1,1,0,0,0-1,1V40.18A1,1,0,0,0,128,41.15Zm.43-27.75h17.69V39.75H128.4Z"/>
  <path class="cls-1" d="M104,41.15h18.56a1,1,0,0,0,1-1V37a1,1,0,0,0-1-1h-6.72V30.19a1,1,0,0,0-1-1h-3.21a1,1,0,0,0-1,1V36H104a1,1,0,0,0-1,1v3.21A1,1,0,0,0,104,41.15Zm.43-3.75h7.66V30.63h2.35v6.76h7.68v2.35H104.4Z"/>
  <path class="cls-1" d="M104,25.15h18.56a1,1,0,0,0,1-1V13a1,1,0,0,0-1-1H104a1,1,0,0,0-1,1V24.18A1,1,0,0,0,104,25.15Zm.43-11.75h17.69V23.75H104.4Z"/>
  <path class="cls-1" d="M104,10.15h18.56a1,1,0,0,0,1-1V6a1,1,0,0,0-1-1H104a1,1,0,0,0-1,1V9.18A1,1,0,0,0,104,10.15Zm.43-3.75h17.69V8.75H104.4Z"/>
  <path class="cls-1" d="M15,10.15H98.53a1,1,0,0,0,1-1V6a1,1,0,0,0-1-1H15a1,1,0,0,0-1,1V9.18A1,1,0,0,0,15,10.15ZM15.4,6.4H98.09V8.75H15.4Z"/>
  <path class="cls-1" d="M5,10.15H8.53a1,1,0,0,0,1-1V6a1,1,0,0,0-1-1H5A1,1,0,0,0,4,6V9.18A1,1,0,0,0,5,10.15ZM5.4,6.4H8.09V8.75H5.4Z"/>
  <path class="cls-1" d="M150.68,0H1A1,1,0,0,0,0,1V45.18a1,1,0,0,0,1,1H150.68a1,1,0,0,0,1-1V1A1,1,0,0,0,150.68,0Zm-.43,44.75H1.4V1.4H150.25Z"/>
</svg>
