<svg xmlns="http://www.w3.org/2000/svg" width="128.26" height="46.15" viewBox="0 0 128.26 46.15">
  <defs>
    <style>
      .cls-1 {
        fill: #fff;
      }
    </style>
  </defs>
  <title>Asset 139</title>
  <g id="Layer_2" data-name="Layer 2">
    <g id="Layer_1-2" data-name="Layer 1">
      <g>
        <path class="cls-1" d="M98.53,12H15a1,1,0,0,0-1,1V40.18a1,1,0,0,0,1,1H98.53a1,1,0,0,0,1-1V13A1,1,0,0,0,98.53,12Zm-.44,27.75H15.4V13.4H98.09Z"/>
        <path class="cls-1" d="M122.53,36h-6.72V30.19a1,1,0,0,0-1-1h-3.21a1,1,0,0,0-1,1V36H104a1,1,0,0,0-1,1v3.21a1,1,0,0,0,1,1h18.56a1,1,0,0,0,1-1V37A1,1,0,0,0,122.53,36Zm-.44,3.75H104.4V37.4h7.66V30.63h2.35v6.76h7.68Z"/>
        <path class="cls-1" d="M122.53,12H104a1,1,0,0,0-1,1V24.18a1,1,0,0,0,1,1h18.56a1,1,0,0,0,1-1V13A1,1,0,0,0,122.53,12Zm-.44,11.75H104.4V13.4h17.69Z"/>
        <path class="cls-1" d="M122.53,5H104a1,1,0,0,0-1,1V9.18a1,1,0,0,0,1,1h18.56a1,1,0,0,0,1-1V6A1,1,0,0,0,122.53,5Zm-.44,3.75H104.4V6.4h17.69Z"/>
        <path class="cls-1" d="M98.53,5H15a1,1,0,0,0-1,1V9.18a1,1,0,0,0,1,1H98.53a1,1,0,0,0,1-1V6A1,1,0,0,0,98.53,5Zm-.44,3.75H15.4V6.4H98.09Z"/>
        <path class="cls-1" d="M8.53,5H5A1,1,0,0,0,4,6V9.18a1,1,0,0,0,1,1H8.53a1,1,0,0,0,1-1V6A1,1,0,0,0,8.53,5ZM8.09,8.75H5.4V6.4H8.09Z"/>
        <path class="cls-1" d="M124.06,0H4.2A4.2,4.2,0,0,0,0,4.2V42a4.2,4.2,0,0,0,4.2,4.2H124.06a4.2,4.2,0,0,0,4.2-4.2V4.2A4.2,4.2,0,0,0,124.06,0Zm2.8,42a2.81,2.81,0,0,1-2.8,2.8H4.2A2.81,2.81,0,0,1,1.4,42V4.2A2.81,2.81,0,0,1,4.2,1.4H124.06a2.81,2.81,0,0,1,2.8,2.8Z"/>
      </g>
    </g>
  </g>
</svg>
