<svg xmlns="http://www.w3.org/2000/svg" width="97.65" height="39.15" viewBox="0 0 97.65 39.15"><defs><style>.cls-1{fill:#fff;}</style></defs><g id="Layer_2" data-name="Layer 2"><g id="Layer_1-2" data-name="Layer 1"><path class="cls-1" d="M62.63,30H28.06a1,1,0,0,0-1,1v3.21a1,1,0,0,0,1,1H62.63a1,1,0,0,0,1-1V31A1,1,0,0,0,62.63,30Zm-.44,3.75H28.49V31.4h33.7Z"/><path class="cls-1" d="M92.68,30H66a1,1,0,0,0-1,1v3.21a1,1,0,0,0,1,1H92.68a1,1,0,0,0,1-1V31A1,1,0,0,0,92.68,30Zm-.43,3.75H66.46V31.4H92.25Z"/><path class="cls-1" d="M5,35.15H24.53a1,1,0,0,0,1-1V31a1,1,0,0,0-1-1H5a1,1,0,0,0-1,1v3.21A1,1,0,0,0,5,35.15ZM5.4,31.4H24.09v2.35H5.4Z"/><path class="cls-1" d="M5,28.4H92.67a1,1,0,0,0,1-1V5a1,1,0,0,0-1-1H5A1,1,0,0,0,4,5V27.43A1,1,0,0,0,5,28.4Zm.43-23H92.23V27H5.44Z"/><path class="cls-1" d="M96.68,0H1A1,1,0,0,0,0,1V38.18a1,1,0,0,0,1,1H96.68a1,1,0,0,0,1-1V1A1,1,0,0,0,96.68,0Zm-.43,37.75H1.4V1.4H96.25Z"/></g></g></svg>