<svg xmlns="http://www.w3.org/2000/svg" width="151.65" height="60.78" viewBox="0 0 151.65 60.78">
  <defs>
    <style>
      .cls-1 {
        fill: #fff;
      }
    </style>
  </defs>
  <path class="cls-1" d="M98.53,20H15a1,1,0,0,0-1,1V48.18a1,1,0,0,0,1,1H98.53a1,1,0,0,0,1-1V21A1,1,0,0,0,98.53,20Zm-.44,27.75H15.4V21.4H98.09Z"/>
  <path class="cls-1" d="M146.53,20H128a1,1,0,0,0-1,1V48.18a1,1,0,0,0,1,1h18.56a1,1,0,0,0,1-1V21A1,1,0,0,0,146.53,20Zm-.44,27.75H128.4V21.4h17.69Z"/>
  <path class="cls-1" d="M122.53,44h-6.72V38.19a1,1,0,0,0-1-1h-3.21a1,1,0,0,0-1,1V44H104a1,1,0,0,0-1,1v3.21a1,1,0,0,0,1,1h18.56a1,1,0,0,0,1-1V45A1,1,0,0,0,122.53,44Zm-.44,3.75H104.4V45.4h7.66V38.63h2.35v6.76h7.68Z"/>
  <path class="cls-1" d="M122.53,20H104a1,1,0,0,0-1,1V32.18a1,1,0,0,0,1,1h18.56a1,1,0,0,0,1-1V21A1,1,0,0,0,122.53,20Zm-.44,11.75H104.4V21.4h17.69Z"/>
  <path class="cls-1" d="M122.53,13H104a1,1,0,0,0-1,1v3.21a1,1,0,0,0,1,1h18.56a1,1,0,0,0,1-1V14A1,1,0,0,0,122.53,13Zm-.44,3.75H104.4V14.4h17.69Z"/>
  <path class="cls-1" d="M98.53,13H15a1,1,0,0,0-1,1v3.21a1,1,0,0,0,1,1H98.53a1,1,0,0,0,1-1V14A1,1,0,0,0,98.53,13Zm-.44,3.75H15.4V14.4H98.09Z"/>
  <path class="cls-1" d="M8.53,13H5a1,1,0,0,0-1,1v3.21a1,1,0,0,0,1,1H8.53a1,1,0,0,0,1-1V14A1,1,0,0,0,8.53,13Zm-.44,3.75H5.4V14.4H8.09Z"/>
  <path class="cls-1" d="M151.65,1a1,1,0,0,0-1-1H1A1,1,0,0,0,0,1V52.18s0,.08,0,.13v4.56l4,3.91H147.46l4.17-3.5V52.52h0a.94.94,0,0,0,.07-.34ZM1.4,51.75V10.4H150.25V51.75ZM150.25,1.4V9H1.4V1.4Zm-3.3,58H4.61l-3.18-3.1V53.15h148.8v3.47Z"/>
  <path class="cls-1" d="M124,7.15h22.71a1,1,0,0,0,1-1V4a1,1,0,0,0-1-1H124a1,1,0,0,0-1,1V6.18A1,1,0,0,0,124,7.15Zm.43-2.75h21.85V5.75H124.4Z"/>
  <path class="cls-1" d="M5,7.15H27.68a1,1,0,0,0,1-1V4a1,1,0,0,0-1-1H5A1,1,0,0,0,4,4V6.18A1,1,0,0,0,5,7.15ZM5.4,4.4H27.25V5.75H5.4Z"/>
  <rect class="cls-1" x="104.79" y="3.49" width="2.33" height="3.17" rx="0.65" ry="0.65"/>
  <rect class="cls-1" x="110.79" y="3.49" width="2.33" height="3.17" rx="0.65" ry="0.65"/>
  <rect class="cls-1" x="116.79" y="3.49" width="2.33" height="3.17" rx="0.65" ry="0.65"/>
</svg>
