<svg xmlns="http://www.w3.org/2000/svg" width="151.65" height="56.65" viewBox="0 0 151.65 56.65"><defs><style>.cls-1{fill:#fff;}</style></defs><g id="Layer_2" data-name="Layer 2"><g id="Layer_1-2" data-name="Layer 1"><path class="cls-1" d="M17,7.87h3.56a1,1,0,0,0,1-1V3.68a1,1,0,0,0-1-1H17a1,1,0,0,0-1,1V6.9A1,1,0,0,0,17,7.87Zm.43-3.75h2.69V6.47H17.4Z"/><path class="cls-1" d="M11,7.87h3.56a1,1,0,0,0,1-1V3.68a1,1,0,0,0-1-1H11a1,1,0,0,0-1,1V6.9A1,1,0,0,0,11,7.87Zm.43-3.75h2.69V6.47H11.4Z"/><path class="cls-1" d="M5,7.87H8.53a1,1,0,0,0,1-1V3.68a1,1,0,0,0-1-1H5a1,1,0,0,0-1,1V6.9A1,1,0,0,0,5,7.87ZM5.4,4.12H8.09V6.47H5.4Z"/><path class="cls-1" d="M139,7.87h7.56a1,1,0,0,0,1-1V3.68a1,1,0,0,0-1-1H139a1,1,0,0,0-1,1V6.9A1,1,0,0,0,139,7.87Zm.43-3.75h6.69v.67H139.4Zm0,1.67h6.69v.68H139.4Z"/><path class="cls-1" d="M131,7.87h3.56a1,1,0,0,0,1-1V3.68a1,1,0,0,0-1-1H131a1,1,0,0,0-1,1V6.9A1,1,0,0,0,131,7.87Zm.43-3.75h2.69V6.47H131.4Z"/><path class="cls-1" d="M125,7.87h3.56a1,1,0,0,0,1-1V3.68a1,1,0,0,0-1-1H125a1,1,0,0,0-1,1V6.9A1,1,0,0,0,125,7.87Zm.43-3.75h2.69V6.47H125.4Z"/><path class="cls-1" d="M119,7.87h3.56a1,1,0,0,0,1-1V3.68a1,1,0,0,0-1-1H119a1,1,0,0,0-1,1V6.9A1,1,0,0,0,119,7.87Zm.43-3.75h2.69V6.47H119.4Z"/><path class="cls-1" d="M113,7.87h3.56a1,1,0,0,0,1-1V3.68a1,1,0,0,0-1-1H113a1,1,0,0,0-1,1V6.9A1,1,0,0,0,113,7.87Zm.43-3.75h2.69V6.47H113.4Z"/><path class="cls-1" d="M5,49.15H98.53a1,1,0,0,0,1-1V21a1,1,0,0,0-1-1H5a1,1,0,0,0-1,1V48.18A1,1,0,0,0,5,49.15ZM5.4,21.4H98.09V47.75H5.4Z"/><path class="cls-1" d="M128,49.15h18.56a1,1,0,0,0,1-1V21a1,1,0,0,0-1-1H128a1,1,0,0,0-1,1V48.18A1,1,0,0,0,128,49.15Zm.43-27.75h17.69V47.75H128.4Z"/><path class="cls-1" d="M104,49.15h18.56a1,1,0,0,0,1-1V45a1,1,0,0,0-1-1h-6.72V38.19a1,1,0,0,0-1-1h-3.21a1,1,0,0,0-1,1V44H104a1,1,0,0,0-1,1v3.21A1,1,0,0,0,104,49.15Zm.43-3.75h7.66V38.63h2.35v6.76h7.68v2.35H104.4Z"/><path class="cls-1" d="M104,33.15h18.56a1,1,0,0,0,1-1V21a1,1,0,0,0-1-1H104a1,1,0,0,0-1,1V32.18A1,1,0,0,0,104,33.15Zm.43-11.75h17.69V31.75H104.4Z"/><path class="cls-1" d="M104,18.15h18.56a1,1,0,0,0,1-1V14a1,1,0,0,0-1-1H104a1,1,0,0,0-1,1v3.21A1,1,0,0,0,104,18.15Zm.43-3.75h17.69v2.35H104.4Z"/><path class="cls-1" d="M44,18.15H68.53a1,1,0,0,0,1-1V14a1,1,0,0,0-1-1H44a1,1,0,0,0-1,1v3.21A1,1,0,0,0,44,18.15Zm.43-3.75H68.09v2.35H44.4Z"/><path class="cls-1" d="M74,18.15H98.53a1,1,0,0,0,1-1V14a1,1,0,0,0-1-1H74a1,1,0,0,0-1,1v3.21A1,1,0,0,0,74,18.15Zm.43-3.75H98.09v2.35H74.4Z"/><path class="cls-1" d="M14,18.15H38.53a1,1,0,0,0,1-1V14a1,1,0,0,0-1-1H14a1,1,0,0,0-1,1v3.21A1,1,0,0,0,14,18.15Zm.43-3.75H38.09v2.35H14.4Z"/><path class="cls-1" d="M5,18.15H8.53a1,1,0,0,0,1-1V14a1,1,0,0,0-1-1H5a1,1,0,0,0-1,1v3.21A1,1,0,0,0,5,18.15ZM5.4,14.4H8.09v2.35H5.4Z"/><path class="cls-1" d="M151.65.78a.78.78,0,0,0-.78-.78H.78A.78.78,0,0,0,0,.78V52.37s0,.08,0,.12v3.78l151.61.38V52.52h0a.8.8,0,0,0,0-.15Zm-1.42,54.47L1.43,54.88V53.15h148.8Zm0-3.5H1.4V10.4H150.25Zm0-42.75H1.4V1.4H150.25Z"/></g></g></svg>