<svg xmlns="http://www.w3.org/2000/svg" width="165px" height="76px" viewBox="0 0 164.79 75.76"><defs><style>.cls-1{fill:#fff;}.cls-2{fill:none;stroke:#fff;stroke-miterlimit:10;stroke-width:1.4px;}</style></defs><title>Asset 3</title><g id="Layer_2" data-name="Layer 2"><g id="Layer_1-2" data-name="Layer 1"><path class="cls-1" d="M75.39,62.09h.82l.2-.67,1.75-1,.18-.59h-.82l-.09.3-1.29.73-.81-.7.1-.33H74.6l-.17.57,1.16,1Z"/><path class="cls-1" d="M82.34,61.17l-.28.92H85.8l.18-.6H83.14L84.39,61l-1-.54H86.3l.18-.6H82.74l-.27.89.4.23Z"/><polygon class="cls-1" points="71.36 59.83 70.54 59.83 69.86 62.09 70.68 62.09 71.36 59.83"/><path class="cls-1" d="M74.2,59.83h-.75l-.25.83H71.32l-.18.6H73l-.25.83h.82l.68-2.26Z"/><path class="cls-1" d="M79.27,60.43h2.09l-.06.19-.7.29H79.34l-.18.6h1.57L82,61l.34-1.14H78.63l-.68,2.26h.82Z"/><path class="cls-1" d="M86.42,61.34l-.23.76H87l.17-.57Z"/><path class="cls-1" d="M89.07,61.48,90.26,61l.35-1.16H86.87L86.51,61A8.75,8.75,0,0,1,89.07,61.48Zm-1.55-1H89.6l-.06.21-.64.27H87.37Z"/><path class="cls-1" d="M94.27,66.55a8.22,8.22,0,0,0-2.37-3.68,5.22,5.22,0,0,0,1.56-3.52,5.94,5.94,0,0,1-2.24,3A9.4,9.4,0,0,0,85,61a11.46,11.46,0,0,1,5.48,1.85c-1.77,1.12-4.57,2.09-9,2.13,0,0,6.32,1,9.76-1.58A12.51,12.51,0,0,1,94.27,66.55Z"/><path class="cls-1" d="M94.13,59.83v.08H94v.4h-.1v-.4h-.15v-.08Zm.52.48,0-.28s0-.08,0-.13h0l0,.14-.09.27h-.1L94.31,60l0-.14h0s0,.09,0,.13l0,.28h-.09l0-.48h.14l.08.23,0,.12h0l0-.12.08-.24h.14l0,.48Z"/><path class="cls-2" d="M155.68.7s6.69-.3,7.05,5.1l1.35,15a7.34,7.34,0,0,1-1.8,3l-1.65,25.66s-.51,2.93-5.7,2.85H8.65a4.18,4.18,0,0,1-4.5-4.5L3,23.81l-1.2-1.2S.7,22.31.7,19.91L2.2,4S2.62.7,8.8.7C8.8.7,155.83.85,155.68.7Z"/><path class="cls-2" d="M10.88,53,12,65.16s0,7.43,7.43,7.88l46.15,2H113.3l33.17-2.48s6.53,0,6.75-7.43l1.35-12.61"/><rect class="cls-2" x="113.74" y="5.03" width="39.25" height="3.75" rx="0.27" ry="0.27"/><rect class="cls-2" x="20.74" y="20.03" width="80.09" height="27.75" rx="0.27" ry="0.27"/><rect class="cls-2" x="130.74" y="20.03" width="19.09" height="27.75" rx="0.27" ry="0.27"/><path class="cls-2" d="M118.37,44h7.2a.27.27,0,0,1,.27.27v3.22a.27.27,0,0,1-.27.27H107a.27.27,0,0,1-.27-.27V44.29A.27.27,0,0,1,107,44h7.53"/><path class="cls-2" d="M114.4,44.72v-9.2a.27.27,0,0,1,.27-.27h3.22a.27.27,0,0,1,.27.27v9.2"/><rect class="cls-2" x="106.74" y="20.03" width="19.09" height="11.75" rx="0.27" ry="0.27"/><rect class="cls-2" x="106.74" y="13.03" width="19.09" height="3.75" rx="0.27" ry="0.27"/><rect class="cls-2" x="20.74" y="13.03" width="80.09" height="3.75" rx="0.27" ry="0.27"/><rect class="cls-2" x="10.74" y="13.03" width="4.09" height="3.75" rx="0.27" ry="0.27"/><rect class="cls-2" x="10.74" y="5.03" width="26.25" height="3.75" rx="0.27" ry="0.27"/></g></g></svg>