<svg xmlns="http://www.w3.org/2000/svg" width="83.47" height="90.8" viewBox="0 0 83.47 90.8"><defs><style>.cls-1{fill:#fff;}</style></defs><g id="Layer_2" data-name="Layer 2"><g id="Layer_1-2" data-name="Layer 1"><path class="cls-1" d="M67.85,84.53a3.08,3.08,0,1,0,3.08,3.08A3.08,3.08,0,0,0,67.85,84.53Zm0,5.16a2.08,2.08,0,1,1,2.08-2.08A2.08,2.08,0,0,1,67.85,89.69Z"/><path class="cls-1" d="M61.41,80.83a2.22,2.22,0,0,0,0,3.14,2.22,2.22,0,0,0,3.14,0,4.69,4.69,0,0,1,6.6,0,2.22,2.22,0,0,0,3.14-3.14A9.14,9.14,0,0,0,61.41,80.83Zm12.17,2.43a1.21,1.21,0,0,1-1.72,0h0a5.67,5.67,0,0,0-8,0,1.22,1.22,0,0,1-1.73-1.72,8.14,8.14,0,0,1,11.46,0A1.21,1.21,0,0,1,73.58,83.26Z"/><path class="cls-1" d="M57.17,75.45A2.2,2.2,0,0,0,56.44,77,2.26,2.26,0,0,0,57,78.59a2.21,2.21,0,0,0,1.54.73h.12a2.18,2.18,0,0,0,1.48-.56l.17-.17a10.66,10.66,0,0,1,7.51-3.11h.07a10.7,10.7,0,0,1,7.54,3.15,2.22,2.22,0,0,0,3.12-3.16A15.14,15.14,0,0,0,57.17,75.45Zm20.64,2.31a1.2,1.2,0,0,1-1.69.14,11.67,11.67,0,0,0-8.23-3.42h-.08a11.65,11.65,0,0,0-8.22,3.42l0,0-.1.09a1.22,1.22,0,0,1-2-1,1.22,1.22,0,0,1,.42-.86,14.12,14.12,0,0,1,20,0A1.23,1.23,0,0,1,77.81,77.76Z"/><path class="cls-1" d="M82.8,70.15a21.21,21.21,0,0,0-29.9,0,2.22,2.22,0,0,0,0,3.14,2.18,2.18,0,0,0,1.56.68A2.22,2.22,0,0,0,56,73.35l.06-.06a16.76,16.76,0,0,1,23.62,0,2.18,2.18,0,0,0,1.56.68h0a2.2,2.2,0,0,0,1.54-.63A2.24,2.24,0,0,0,82.8,70.15Zm-.7,2.47a1.22,1.22,0,0,1-1.73,0,17.75,17.75,0,0,0-25,0l.35.35-.39-.32a1.28,1.28,0,0,1-.87.35,1.2,1.2,0,0,1-.85-.38,1.22,1.22,0,0,1,0-1.73,20.22,20.22,0,0,1,28.53,0A1.21,1.21,0,0,1,82.1,72.62Z"/><path class="cls-1" d="M53.67,31.08a41.64,41.64,0,0,1,6.59-11.26,10.89,10.89,0,0,0,9.79-8.75c.85-4.14-.79-7.84-4.29-9.66-6.37-3.44-19,.47-19.48.64-9.61,3.05-8.82,10.52-8.81,10.6,1.06,8.38,10.5,9,12.87,9-.93,3-2.59,7.47-2.61,7.54a2.26,2.26,0,0,0,.19,2.28C39.85,54.05,34.35,89.86,34.3,90.22a.51.51,0,0,0,.42.57h.07a.51.51,0,0,0,.5-.43C35.34,90,40.79,54.55,48.78,32a6.47,6.47,0,0,0,2.27.45c-1.46,3.68-8.49,22.58-13.29,57.58a.5.5,0,1,0,1,.13c5-36.54,12.45-55.45,13.4-57.75A2.51,2.51,0,0,0,53.67,31.08ZM38.46,12.53c0-.27-.67-6.74,8.12-9.52.12,0,12.71-4,18.71-.71a7.56,7.56,0,0,1,3.78,8.56,10,10,0,0,1-7.45,7.74,14.79,14.79,0,0,0,1.24-1.28h0c4.45-2.33,4.64-7.56,4.64-7.73a7.64,7.64,0,0,0-2.41-6.37,2.94,2.94,0,0,0-2.7-.77,1.83,1.83,0,0,0-.92.76,11.8,11.8,0,0,0-3.76-1.48,8.83,8.83,0,0,0-5.85.76C51.55,2.63,46,5.12,46.82,13a13.54,13.54,0,0,0,3.84,7.6.64.64,0,0,1,0,.07C49.08,20.68,39.48,20.61,38.46,12.53ZM64.13,5.6a8.7,8.7,0,0,0-1.8-1.83.83.83,0,0,1,.43-.39,2.15,2.15,0,0,1,1.73.6,6.77,6.77,0,0,1,2,5.52,9.6,9.6,0,0,1-1.8,5,9.56,9.56,0,0,0,.72-1.91A9,9,0,0,0,64.13,5.6Zm-.85,8.2-4.07,3.49c-.1.09-2.46,1.95-4.91-1A5,5,0,0,1,53,12.57a5,5,0,0,1,1.66-3.08l4-3.13c.07-.06,1.79-1.47,3.23-.19l.08.06C62.05,6.33,66.11,8.76,63.28,13.8ZM47.81,10.27A21.62,21.62,0,0,0,50.52,19a13,13,0,0,1-2.7-6.1A12.57,12.57,0,0,1,47.81,10.27Zm3.94,21.24c-2.18,0-2.93-.56-3-.63s-.39-.45-.07-1.36c.12-.32,2.91-7.87,3.24-9.91a.49.49,0,0,0-.07-.35c0-.06-4.07-6.61-2.79-11.66a6.64,6.64,0,0,1,3.29-4.23,8,8,0,0,1,5.19-.67,10.06,10.06,0,0,1,5.54,3.17,6.23,6.23,0,0,0-.64-.48,3.48,3.48,0,0,0-4.49.19L54,8.71h0a6.08,6.08,0,0,0-2,3.75,6,6,0,0,0,1.57,4.43,4.8,4.8,0,0,0,3.73,2.05,4.47,4.47,0,0,0,2.6-.88l3.28-2.81a13.54,13.54,0,0,1-3.26,3.52A39.41,39.41,0,0,0,52.75,30.7,1.45,1.45,0,0,1,51.75,31.51Z"/><path class="cls-1" d="M27.58,34.43c-.14-2.8-.73-4.66-1.62-5.12l-.11,0a31.79,31.79,0,0,1-4.36-3.18c-1-.85-2.12-1.73-3.24-2.48a3.88,3.88,0,0,0-3.42-.44A5,5,0,0,0,12,25.61,5.3,5.3,0,0,0,9,25a3.23,3.23,0,0,0-2,.93,16.25,16.25,0,0,0-6,3.4.44.44,0,0,0-.14.22c-2.13,7.23-.07,12.1,0,12.31L1,42l9,11.54a.52.52,0,0,0,.46.19l.42-.06C19.69,67.83,17.86,89.79,17.84,90a.5.5,0,0,0,.45.54h.05a.5.5,0,0,0,.49-.46c0-.22,1.89-22.67-7.13-37.13a8.7,8.7,0,0,1,1.05-.6C13.66,54,21.24,68,20.46,90a.5.5,0,0,0,.48.52h0a.5.5,0,0,0,.5-.48c.77-21.94-6.68-36.14-7.81-38.14l.09-.18a.49.49,0,0,0,0-.44l-3.52-7.41a2.74,2.74,0,0,0,.51.06,4.47,4.47,0,0,0,3.48-2l.07,0h0a9.42,9.42,0,0,0,5,1.55c2.18,0,4.77-.89,7.31-3.88h0C27.36,38.93,27.72,37.08,27.58,34.43ZM12.64,51.32a11.26,11.26,0,0,0-2.07,1.21L1.88,41.41c-.22-.54-1.84-5,0-11.43a16.36,16.36,0,0,1,4.3-2.67c-1.52,3.35-1.1,9.05-1,9.78.53,3,2,5.31,3.67,6.33Zm-2.42-8.41c-1.81-.39-3.46-2.86-4-6-.2-1.09-.48-7.38,1.32-10l.1-.11A.5.5,0,0,0,8,26.48,2.2,2.2,0,0,1,9.14,26a2.36,2.36,0,0,1,.38,0,4.6,4.6,0,0,1,2,.53,14.85,14.85,0,0,0,.83,15,1.89,1.89,0,0,0,.52.44A2.88,2.88,0,0,1,10.22,42.91Zm2.95-2A13.59,13.59,0,0,1,12.38,27c.2.14.4.27.59.42-.64,1.41-2.54,6.61.61,13.7C13.38,41.16,13.19,41,13.17,40.93Zm1.4,0C11,33.11,14,27.6,14,27.55a.5.5,0,0,0-.1-.62,9.71,9.71,0,0,0-1.07-.81,4,4,0,0,1,2.27-2,2.91,2.91,0,0,1,2.56.32c1.08.72,2.09,1.55,3.16,2.42a37.05,37.05,0,0,0,3.79,2.84c-.6.8-.87,2.53-.75,4.91.13,2.54.63,4.3,1.38,5C20.24,44.83,15.32,41.45,14.57,40.88Zm11.4-2c-.17-.05-.92-1-1.08-4.28s.47-4.29.61-4.36.91,1,1.08,4.28h0C26.75,37.77,26.11,38.77,26,38.84Z"/></g></g></svg>