<svg xmlns="http://www.w3.org/2000/svg" width="66.03" height="90.93" viewBox="0 0 66.03 90.93"><defs><style>.cls-1{fill:#fff;}</style></defs><g id="Layer_2" data-name="Layer 2"><g id="Layer_1-2" data-name="Layer 1"><path class="cls-1" d="M27.49,25.63C24.6,21.8,19.3,23.4,19.1,23.46A111,111,0,0,0,7.84,27.55C5,28.4,1.83,32,1.65,32.21c-3.94,4.4.41,10.48.45,10.53,2.06,2.94,7,3.24,9,3.24.45,0,.74,0,.8,0l.49,0c0,1.49-.16,6.35-.69,8-.11.83,0,2.19.93,2.63V90.43a.5.5,0,0,0,.5.5.5.5,0,0,0,.5-.5V56.36a.47.47,0,0,0,0-.17l.06-.42a9,9,0,0,1,2.3-.06V90.39a.5.5,0,0,0,.5.5.51.51,0,0,0,.5-.5V56.78s.05,0,.09,0l.13,0a2,2,0,0,0,1.37-1.89c0-.06.69-6.3,2.91-9.92a7.94,7.94,0,0,1,1.77-2l.44-.2.07,0a.47.47,0,0,0,.36-.18c7.17-2.75,6.49-8.58,6.49-8.64A18.68,18.68,0,0,0,27.49,25.63Zm-12,29a10.37,10.37,0,0,0-2.39.2.48.48,0,0,0-.36.3,3.51,3.51,0,0,1-.07-1c.57-1.79.7-7,.73-8.34a31.8,31.8,0,0,0,5.28-1.17A29.4,29.4,0,0,0,15.45,54.66Zm5.11-10.19c-2.34,3.81-3,10.08-3.06,10.38a1.19,1.19,0,0,1-.07.4.45.45,0,0,0-.21-.2,3.25,3.25,0,0,0-.78-.26A29.77,29.77,0,0,1,19.91,44.4a.45.45,0,0,0,.07-.18l1-.35C20.77,44.13,20.63,44.36,20.56,44.47Zm3-2.76-.27.12-.39.18a34.63,34.63,0,0,1-11,3c-.07,0-6.66.37-8.89-2.8,0,0-3.93-5.48-.51-9.29h0s3.1-3.59,5.76-4.38a114.13,114.13,0,0,1,11.2-4.07,9.31,9.31,0,0,1,2.49-.33,5.83,5.83,0,0,1,4.83,2.13,18.14,18.14,0,0,1,2.85,7.83C29.57,34.26,30.12,39.25,23.51,41.71Z"/><path class="cls-1" d="M4.59,34.42a1.39,1.39,0,0,0-.81-.19,1.11,1.11,0,0,0-.83.21,3,3,0,0,0-.82,2v.06A8.43,8.43,0,0,0,3.5,41.12c.74,1,1.41,1.44,2,1.44h.12a1.18,1.18,0,0,0,.9-.6c.88-1.62,0-4,0-4C6.06,36.05,5.4,34.87,4.59,34.42Zm1.08,7.07a.14.14,0,0,1-.11.06s-.45,0-1.28-1a7.7,7.7,0,0,1-1.15-4,2.31,2.31,0,0,1,.41-1.25s0,0,.12,0a.45.45,0,0,0,.23,0s.92,0,1.7,3C5.6,38.24,6.34,40.25,5.67,41.49Z"/><path class="cls-1" d="M21.82,26.2a1.12,1.12,0,0,0-1.31.47.77.77,0,0,0-.17.53,1.87,1.87,0,0,0,.8,1.13h0c5.08,3.5,2.94,8.23,2.85,8.43a.3.3,0,0,0,0,.1,1.47,1.47,0,0,0,.15,1.26.82.82,0,0,0,.39.27.63.63,0,0,0,.4.14h0c.48,0,.92-.48,1.16-.78,2.49-3.36.73-7.32.65-7.49C25.07,26.63,22.28,26.24,21.82,26.2Zm3.47,11a1.79,1.79,0,0,1-.33.34l-.05,0a.93.93,0,0,1,0-.34c.26-.61,2.26-5.84-3.21-9.61a1.65,1.65,0,0,1-.35-.35.34.34,0,0,1,.22,0h.11c.11,0,2.6.19,4.12,3.49C25.85,30.72,27.42,34.28,25.29,37.15Z"/><path class="cls-1" d="M59.71,4.86a4.23,4.23,0,0,0-5.28,0l-3.7,3.3,0,0a5.92,5.92,0,0,0-1,6.09c0,.09.06.17.07.22a.53.53,0,0,0,0,.25c1.28,3,3.32,3.48,4.57,3.48a4.08,4.08,0,0,0,1-.12c1.51-.12,4.14-2.78,4.64-3.3a6.78,6.78,0,0,0,2-3.13C63,7,59.8,4.91,59.71,4.86ZM61,11.45a5.89,5.89,0,0,1-1.7,2.64c-1.19,1.24-3.23,3-4,3l-.14,0c-.12,0-2.81.84-4.38-2.67a3.3,3.3,0,0,0-.13-.49,5,5,0,0,1,.78-5.11L55.07,5.6a3.31,3.31,0,0,1,4.06.07S61.84,7.44,61,11.45Z"/><path class="cls-1" d="M64.68,4s-2-5-9.33-3.76c-.18,0-4.43.2-12.2,3.18-.24.09-6,2.36-7.17,5.53-.28.46-1.76,3.28.82,8.52.06.14,1.52,3.43,7.5,3.57,0,0,.48,0,1.25,0,.94,0,2.37,0,4.14-.18a60.91,60.91,0,0,1-1.46,6.25l-.59,2a1.86,1.86,0,0,0-.06,1.36,2,2,0,0,0,.8.95s0,0,0,.05-.62,6.86-.73,20.36c0,0,0,1.67,0,4.66l-.47,33.78a.49.49,0,0,0,.49.5h0a.51.51,0,0,0,.5-.49l.47-33.78c0-3,0-4.68,0-4.68.1-12,.6-18.71.71-20a8.73,8.73,0,0,0,2.24.33h.17c-.22,2.05-1.18,12.15-1.18,29.89V90.38a.5.5,0,0,0,.5.5.5.5,0,0,0,.5-.5V62c0-18.64,1.06-28.81,1.2-30a1.67,1.67,0,0,0,1.08-1c0-.1,2.95-8.5,6.1-12.34l.12,0a10.63,10.63,0,0,0,5.58-6.32A11.77,11.77,0,0,0,64.68,4ZM44.34,20c-5.31-.13-6.57-2.85-6.63-3-2.5-5.08-.88-7.58-.87-7.6a.34.34,0,0,0,.06-.12c1-2.77,6.56-5,6.61-5a62.66,62.66,0,0,1,6-2,6.7,6.7,0,0,0-1,1c-.16.13-3.86,3.3-2.28,10.15a13.57,13.57,0,0,0,3.66,6.07c0,.09,0,.2,0,.32A46,46,0,0,1,44.34,20Zm16.15-3.39c-3.78,3-7.43,13.54-7.58,14s-.67.48-.71.49a7.65,7.65,0,0,1-3-.38h0a1.18,1.18,0,0,1-.67-.59.9.9,0,0,1,0-.67l.62-2.05a81.09,81.09,0,0,0,1.79-8,.5.5,0,0,0-.19-.48c-2.47-1.9-3.53-5.69-3.54-5.71-1.43-6.21,1.81-9,2-9.21a6.77,6.77,0,0,1,4.3-2.34c4.9-.09,7.12,2.22,7.19,2.29,2.62,2.2,2.71,6.07,2.72,6.12C63.6,13.5,60.72,16.39,60.49,16.61ZM64.69,12a8.29,8.29,0,0,1-1.64,3A9,9,0,0,0,64.47,10c0-.18-.1-4.37-3-6.83A8.83,8.83,0,0,0,57.12,1c5.19-.22,6.57,3.14,6.66,3.35A11.09,11.09,0,0,1,64.69,12Z"/></g></g></svg>