<svg xmlns="http://www.w3.org/2000/svg" width="219.46" height="123.51" viewBox="0 0 219.46 123.51"><defs><style>.cls-1{fill:#ffffff;}</style></defs><g><g><polygon class="cls-1" points="59.63 12.39 45.17 12.39 33.17 52.41 47.65 52.41 59.63 12.39"/><path class="cls-1" d="M99.15,52.41,103,39.51a201.39,201.39,0,0,0-45.12-8.65l-2,6.82H89L84.58,52.41Z"/><path class="cls-1" d="M219.36,122.52C209.64,94.65,195,74.68,178.45,60.38c26-25.16,26.74-56.95,26.92-59.31.08-1-.09-1-.28-1.07-.34,0-.52.44-.52.44-8.55,21-22.35,37.4-38.85,50.24C146,37.49,124.79,31,106.5,27.85l4.63-15.46H96.58L92.49,26a166.53,166.53,0,0,0-33.5.09c-.77.06-1,.26-1,.52s.76.38.76.38a201.51,201.51,0,0,1,94.79,32.2C90.75,99.16,1.39,96.68,1.39,96.68c-1.13,0-1.37.16-1.39.59,0,.63,1,.64,1,.64C114.38,111.85,163.58,72.38,167.8,69.22c33.7,25.74,50.42,53.55,50.42,53.55.31.45.63.83,1,.71.5-.18.18-1,.18-1"/></g></g></svg>