<svg xmlns="http://www.w3.org/2000/svg" width="134.5" height="56.3" viewBox="0 0 134.5 56.3">
  <defs>
    <style>
      .cls-1 {
        fill: #fff;
      }
    </style>
  </defs>
  <title>Asset 140</title>
  <g id="Layer_2" data-name="Layer 2">
    <g id="Layer_1-2" data-name="Layer 1">
      <g>
        <path class="cls-1" d="M130.06,18a.68.68,0,0,0-.59-.51l-5-.59a.72.72,0,0,0-.29-.06h0l-.09,0-13.89-1.64a4,4,0,0,1-3.56-2.82l-1.12-6.06a3.81,3.81,0,0,0-3.92-3.55H87l0-2.05a.71.71,0,0,0-.7-.69H48.63a.7.7,0,0,0-.7.7V2.58H33.68a3.91,3.91,0,0,0-4.28,3.3L27.94,13c0,.1-.37,2.51-3.71,2.62L6.15,16.79a.69.69,0,0,0-.59.4c-.21.44-5.08,11-5.56,29.5,0,.19-.12,4.63,2.63,7.43a7.66,7.66,0,0,0,5.82,2.17H123.89c1.8,0,9.92-.43,10.56-8.08C134.48,47.76,135.2,36.9,130.06,18ZM104.16,6.47l1.14,6.19a5.39,5.39,0,0,0,4.79,3.91l13.43,1.58.15,17.77a19.59,19.59,0,0,1-1.46,7.32c-2,4.77-5.82,7.28-11.26,7.45a.71.71,0,0,0-.68.7v3.5H99V4.14h2.65A2.46,2.46,0,0,1,104.16,6.47ZM48.63,4a.7.7,0,0,0,.7-.7V1.4H85.55l0,2.05a.69.69,0,0,0,.7.69H97.57V54.89h-1.7l-.36-3.33a2.54,2.54,0,0,0-2.65-2.48H43a2.75,2.75,0,0,0-3,2.3l-.45,3.51H37.73V4ZM94.46,54.89H41l.43-3.33c0-.18.21-1.08,1.59-1.08H92.85a1.19,1.19,0,0,1,1.26,1.16ZM24.3,17.06c3.64-.12,4.88-2.57,5-3.79l1.46-7.16C31.07,3.92,33.34,4,33.64,4h2.69V54.89H24.65v-3.5a.71.71,0,0,0-.67-.7A12.3,12.3,0,0,1,15,47c-4-4.32-3.75-11-3.75-11.08l.16-18ZM8.44,54.89a6.26,6.26,0,0,1-4.81-1.75C1.3,50.78,1.4,46.77,1.4,46.73,1.83,30.45,5.8,20.2,6.66,18.16L10,18,9.85,35.86c0,.3-.27,7.31,4.12,12.06a13.39,13.39,0,0,0,9.28,4.14v2.83Zm124.61-6.78c-.59,7.19-9.07,6.81-9.47,6.78H111.67V52.06c13.72-.93,13.41-16,13.4-16.17l-.15-17.58,3.91.46C133.77,37.19,133.06,48,133.05,48.11Z"/>
        <path class="cls-1" d="M105,44.68H116.1a3.24,3.24,0,0,0,3.08-3.52v-17a4.29,4.29,0,0,0-1-2.86,2.81,2.81,0,0,0-2.11-.84H105a.7.7,0,0,0-.7.7V44A.7.7,0,0,0,105,44.68Zm12.21-22.43a2.88,2.88,0,0,1,.6,1.87v17a1.85,1.85,0,0,1-1.7,2.12h-2.15V21.84h2.15A1.44,1.44,0,0,1,117.18,22.25Zm-11.51-.41h6.86V43.28h-6.86Z"/>
        <path class="cls-1" d="M17.26,43.84a2.85,2.85,0,0,0,2.11.84H30.48a.7.7,0,0,0,.7-.7V21.14a.7.7,0,0,0-.7-.7H19.35A3.23,3.23,0,0,0,16.27,24V41A4.24,4.24,0,0,0,17.26,43.84Zm12.52-.56H22.92V21.84h6.86ZM17.67,24c0-1.93,1.44-2.1,1.7-2.11h2.15V43.28H19.37a1.48,1.48,0,0,1-1.1-.41,2.92,2.92,0,0,1-.6-1.87Z"/>
      </g>
    </g>
  </g>
</svg>
