<svg xmlns="http://www.w3.org/2000/svg" width="94.98" height="59.6" viewBox="0 0 94.98 59.6">
  <defs>
    <style>
      .cls-1{fill:#fff}
    </style>
  </defs>
  <title>
    Chargeplay Duo
  </title>
  <g id="Layer_2" data-name="Layer 2">
    <g id="Layer_1-2" data-name="Layer 1">
      <path class="cls-1" d="M38.68 25.63h-1.82l-1.51 5.03h1.82l1.51-5.03z"/>
      <path class="cls-1" d="M52.52 32.82a27.69 27.69 0 0 1 6.59 7 18.12 18.12 0 0 0-5.27-8.17 11.58 11.58 0 0 0 3.46-7.81s-.78 3.39-5 6.64a18.65 18.65 0 0 0-7.76-2.94l.59-2h-1.81l-.53 1.76a20.33 20.33 0 0 0-4.16.1 25.48 25.48 0 0 1 12.16 4.2c-3.93 2.5-10.15 4.65-20 4.73.04 0 14.08 2.11 21.73-3.51z"/>
      <path class="cls-1" d="M43.64 30.66l.51-1.66c-.41-.2-1.7-.66-5.65-1.17l-.3 1h4.17c-.11.34-.56 1.85-.56 1.85z"/>
      <path class="cls-1" d="M94.93 28.23a.76.76 0 0 0-.52-.48.73.73 0 0 0-.46.06c-4.48 2.19-8.11.19-10.44-1.18a.71.71 0 0 0-.73 0l-2.69 1.71a7.29 7.29 0 0 1-.86-.87l2-1.44a.72.72 0 0 0 .29-.49.71.71 0 0 0-.17-.54L61.23 1.87a.72.72 0 0 0-.36-.23L58 1 56.55.65A78.09 78.09 0 0 0 46.93 0h-.14a43.19 43.19 0 0 0-9.18.81l-1.49.32-2 .51a.65.65 0 0 0-.37.23l-12 13.84a.73.73 0 0 0-.15.62l.69 2.82-2.84 3.39L17 22a.74.74 0 0 0-.67.21L13.66 25a.67.67 0 0 0-.19.54.69.69 0 0 0 .28.5l1.7 1.24-.15.18a9.47 9.47 0 0 1-.69.72l-2.41-1.53a.71.71 0 0 0-.73 0C9.14 28 5.51 29.9 1 27.72a.67.67 0 0 0-.46 0 .74.74 0 0 0-.52.48c-.22.67-.06 14.91 7.82 24.16.16.21 3.4 4.48 8.08 5.9l.28.72s.39.62.81.67h2.82s.81 0 .9-.43l.29-.49H73l.29.49c.09.43.91.43.91.43h2.81c.43-.05.81-.67.81-.67l.19-.47c5.2-1.06 8.88-5.92 9-6.12 7.99-9.31 8.14-23.48 7.92-24.16zM60.32 3l19.46 22.36-1.43 1-20.06-24zM34.65 3l1.45-.33-12.72 15.14-.38-1.46zM15.22 25.38l1.84-1.94 1.35.31-2.06 2.45zm1.15 3l22-26.28a47.48 47.48 0 0 1 8.54-.68 74.23 74.23 0 0 1 9.14.58l22.06 26.34a14.89 14.89 0 0 0 11.27 4.87h.72c-1.1 6.73-4.48 19.55-14.86 21.24h-56C9.48 53.58 5.46 38 4.46 33.2h.67a14.86 14.86 0 0 0 11.24-4.84zM86 51.47c0 .06-4.39 5.81-9.92 5.81H18.91c-5.52 0-9.91-5.75-9.91-5.84-6.37-7.48-7.5-18.55-7.58-22 4.38 1.76 8 0 10.42-1.36l1.67 1.06a13.81 13.81 0 0 1-8.34 2.7 15 15 0 0 1-2-.12.29.29 0 0 0-.3.32c.38 2.85 4.53 22.84 16.31 23.84h56.18c13.49-2.1 16-21 16.33-23.84a.29.29 0 0 0-.3-.32 15.22 15.22 0 0 1-2 .12 14 14 0 0 1-8.13-2.53l1.93-1.23c2.46 1.34 6 3.2 10.41 1.44C93.52 33 92.38 44 86 51.47z"/>
    </g>
  </g>
</svg>