<svg xmlns="http://www.w3.org/2000/svg" width="119.2" height="52.45" viewBox="0 0 119.2 52.45">
  <defs>
    <style>
      .shortcut-nav-svg{fill:#fff}
    </style>
  </defs>
  <title>
    HyperX Chargeplay Duo
  </title>
  <path class="shortcut-nav-svg" d="M112.77 21.79a2.79 2.79 0 0 0-2.37-1.13 29.72 29.72 0 0 1-1.57-4l.17-.85a.66.66 0 0 0-.11-.53c-3.11-4.55-9.83-8.22-10.12-8.37a.67.67 0 0 0-.37-.08.72.72 0 0 0-.57.17 6.56 6.56 0 0 0-1.74 2.23L96 9.5l.1.22s0 .1.09.26l-.83-.43a.72.72 0 0 0-.54 0 .78.78 0 0 0-.41.35 7.34 7.34 0 0 1-.46.78 2.49 2.49 0 0 0-3.44 3.51 8.5 8.5 0 0 1-1.26.7.71.71 0 0 0-.37.41.72.72 0 0 0 0 .54l1.43 2.84c-4.85.61-5.88-1-5.91-1.06C73.76.65 68.2.11 67.6.1h-1.33a.72.72 0 0 0-.69.56l-.06.34v.06L64.33 1 64 .36a.65.65 0 0 0-.66-.36C60.77 0 56.58.06 56 0a.55.55 0 0 0-.22 0 .7.7 0 0 0-.52.31l-.49.75h-1a.62.62 0 0 0-.11-.17V.72a.69.69 0 0 0-.72-.62H51.6c-.6 0-6.15.55-16.88 17.52 0 0-1 1.61-5.76 1l1.31-2.88a.7.7 0 0 0-.34-.93 9.16 9.16 0 0 1-1.27-.7 2.48 2.48 0 0 0-3.43-3.51c-.3-.46-.46-.77-.47-.78a.71.71 0 0 0-.41-.35.72.72 0 0 0-.54 0L23 10c.05-.16.09-.25.09-.26l.09-.22-.06-.24A6.44 6.44 0 0 0 21.37 7a1 1 0 0 0-.94-.09c-.28.15-7 3.82-10.12 8.37a.7.7 0 0 0-.1.53l.16.85a30.76 30.76 0 0 1-1.56 4 2.82 2.82 0 0 0-2.37 1.11c-.2.36-5 9.16-6.44 25.63 0 .81.89 2.76 10.46 3.41.2 0 19.53 1.64 44.95 1.64h2.31a.73.73 0 0 0 .65-.45l.07-.19h2.31l.09.22a.72.72 0 0 0 .65.45h2.31c25.42 0 44.75-1.62 44.93-1.63 9.58-.66 10.52-2.61 10.47-3.44-1.41-16.48-6.2-25.28-6.43-25.62zM95.34 11.11l1.23.63a6.12 6.12 0 0 1-.48 2.93 7.34 7.34 0 0 1-4.33 3.63l-1.25-2.5a13.5 13.5 0 0 0 4.83-4.69zm-12.1 7.16c.14.28 1.56 2.71 8.15 1.64h.18c2.9-1 4.86-2.53 5.8-4.63a8.1 8.1 0 0 0 .15-5.78 7.2 7.2 0 0 1 .94-1.1c1.37.8 6.51 3.89 9.11 7.5l-.13.66c-5.16 5.39-10.13 8.17-14.78 8.26a10 10 0 0 1-6.77-2.27L67.13 1.5h.44c.06 0 5.43.5 15.67 16.77zm-59.38-7.16a13.49 13.49 0 0 0 4.86 4.7l-1.16 2.54a7.41 7.41 0 0 1-4.44-3.67 6.18 6.18 0 0 1-.48-2.95zm-3.11-2.74a6.61 6.61 0 0 1 .93 1.09 8.06 8.06 0 0 0 .16 5.78c.94 2.1 2.89 3.66 5.8 4.63h.09a.32.32 0 0 0 .09 0 18.1 18.1 0 0 0 3.05.27c4 0 5-1.67 5.06-1.85C46.24 2 51.58 1.5 51.61 1.5h.46l-18.72 21a9.79 9.79 0 0 1-6.76 2.3c-4.67-.07-9.65-2.86-14.82-8.26l-.13-.66c2.6-3.62 7.73-6.72 9.11-7.51zM7.68 22.43c.1-.21.87-.41 1.54-.38a.81.81 0 0 0 .63-.37 24.73 24.73 0 0 0 1.52-3.57c5.23 5.27 10.33 8 15.19 8.07h.21a11.18 11.18 0 0 0 7.59-2.73L53.06 2.5h2.12a.72.72 0 0 0 .57-.32l.47-.73c.85.05 2.66 0 6.72 0l.37.64a.7.7 0 0 0 .59.36h2.17l18.79 21a11.15 11.15 0 0 0 7.55 2.7h.21c4.86-.08 10-2.8 15.19-8.07a24.85 24.85 0 0 0 1.53 3.57.65.65 0 0 0 .63.37c.59 0 1.42.15 1.55.4 0 .07 3.27 6 5.21 16.94a.74.74 0 0 0-.18.21c0 .06-3 5.45-19.81 6.32l-37.42.7h-.07l-36.8-.7c-16.6-.83-19.77-6.21-19.82-6.29a.51.51 0 0 0-.17-.21C4.4 28.44 7.63 22.52 7.68 22.43zm2.89 27c-7.6-.52-9-1.81-9.16-2.06.19-2.18.45-4.22.75-6.13 1.7 1.78 6.77 5.39 20.26 6.09l35.25.67a3.4 3.4 0 0 0-.41 1.44V51c-26.26.15-46.48-1.56-46.69-1.58zm48.09 1v-.93s.08-1.16.78-1.16h.25c.79 0 .85.94.85 1.12v1c-.42-.08-1.02-.08-1.88-.06zm50-1c-.21 0-20.39 1.73-46.67 1.63v-1.64a3.09 3.09 0 0 0-.45-1.42l35.27-.66c13.47-.7 18.54-4.31 20.24-6.09.3 2 .56 4 .76 6.25 0-.01-1.35 1.38-9.18 1.92z"/>
  <path class="shortcut-nav-svg" d="M53.07 22.51h-1.82l-1.51 5.03h1.82l1.51-5.03z"/>
  <path class="shortcut-nav-svg" d="M66.91 29.7a27.69 27.69 0 0 1 6.59 7.05 18.29 18.29 0 0 0-5.26-8.18 11.57 11.57 0 0 0 3.45-7.81s-.78 3.4-5 6.65A18.75 18.75 0 0 0 59 24.47l.58-2h-1.87l-.53 1.76a19.54 19.54 0 0 0-4.16.1 25.48 25.48 0 0 1 12.16 4.11C61.25 31 55 33.13 45.22 33.2c0 0 14.04 2.12 21.69-3.5z"/>
  <path class="shortcut-nav-svg" d="M58 27.54l.51-1.68c-.4-.2-1.7-.66-5.64-1.17l-.31 1h4.17l-.56 1.85z"/>
</svg>