<svg xmlns="http://www.w3.org/2000/svg" width="116.07" height="58.51" viewBox="0 0 116.07 58.51">
  <defs>
    <style>
      .shortcut-nav-svg{fill:#fff}
    </style>
  </defs>
  <title>
    HyperX Chargeplay Quad
  </title>
  <path class="shortcut-nav-svg" d="M48.03 25.68l-1.51 5.03h1.82l1.51-5.03h-1.82z"/>
  <path class="shortcut-nav-svg" d="M65 31.74a11.54 11.54 0 0 0 3.46-7.81s-.78 3.4-5 6.64a18.88 18.88 0 0 0-7.77-2.94l.59-1.95h-1.79L54 27.44a19.48 19.48 0 0 0-4.16.1A25.37 25.37 0 0 1 62 31.65c-4 2.5-10.19 4.65-20 4.72 0 0 14 2.12 21.69-3.5a27.75 27.75 0 0 1 6.59 7A18.24 18.24 0 0 0 65 31.74z"/>
  <path class="shortcut-nav-svg" d="M54.81 30.71l.51-1.71c-.41-.2-1.7-.65-5.65-1.17l-.3 1h4.17c-.11.34-.56 1.85-.56 1.85zM47.37 9.93c2.5-1.35 3.7-2.64 3.69-3.95A2.34 2.34 0 0 0 49.77 4a.35.35 0 0 0-.13 0c-8.32-2.36-16 2.2-16.46 2.44C19.34 14.47 14 27.76 12.11 35a4.75 4.75 0 0 0 .4 4 4.4 4.4 0 0 0 3 1.79h9.07c5.72-.46 8.6-10 8.72-10.35C38.74 13.91 47.23 10 47.37 9.93zM24.48 39.31h-8.91a3 3 0 0 1-1.89-1.18 3.42 3.42 0 0 1-.22-2.82C15 29.56 18.78 19.8 27.54 12.18c-8 8.78-10.91 20.06-11.06 20.67a4.14 4.14 0 0 0 .33 3.79 3.51 3.51 0 0 0 2.64 1.21h8a5 5 0 0 1-2.97 1.46zm7.44-9.37a24.22 24.22 0 0 1-3.21 6.51h-9.25a2.14 2.14 0 0 1-1.54-.67 3.07 3.07 0 0 1-.09-2.56C17.88 33 23.1 13 38.11 5.86a.54.54 0 0 0 .12-.09 21.81 21.81 0 0 1 6.49-1.06 16.57 16.57 0 0 1 4.45.59 1 1 0 0 1 .49.7c0 .26-.2 1.21-2.9 2.67-.37.16-9.13 4.14-14.84 21.27zM83.25 6.42a23.65 23.65 0 0 0-4-1.8h-.06A20.78 20.78 0 0 0 66.8 4a.29.29 0 0 0-.13.05 2.34 2.34 0 0 0-1.29 2c0 1.31 1.19 2.6 3.74 4 .08 0 8.58 4 14.06 20.39.11.4 3 9.91 8.77 10.37h9.12a4.51 4.51 0 0 0 2.86-1.79 4.72 4.72 0 0 0 .39-4c-1.92-7.26-7.22-20.55-21.07-28.6zM69.73 8.69c-2.74-1.47-3-2.43-3-2.69a1 1 0 0 1 .48-.7 19.63 19.63 0 0 1 11.58.7c14.84 7.24 20 27.05 20.09 27.28a3 3 0 0 1-.1 2.53 2.07 2.07 0 0 1-1.55.67h-9.49a24.09 24.09 0 0 1-3.23-6.53C78.81 12.81 70.05 8.83 69.73 8.69zm33 29.44a3 3 0 0 1-1.86 1.18H92a5.08 5.08 0 0 1-3-1.47h8.23a3.5 3.5 0 0 0 2.65-1.21 4.08 4.08 0 0 0 .34-3.76 54.49 54.49 0 0 0-10-19.5A47.42 47.42 0 0 1 103 35.32a3.41 3.41 0 0 1-.23 2.81z"/>
  <path class="shortcut-nav-svg" d="M116 49.41C108.84 9 76.17 1.7 75.82 1.63c-20.42-3.65-35.4 0-35.57 0C6 11.26.31 47.43.1 48.91A2.13 2.13 0 0 0 .47 51a2.61 2.61 0 0 0 1.73.74s0 .06.09.08 1.82 1.18 3.2 5.26l.15.45h.47c.29 0 19.17.95 49.67.95 15.37 0 33.69-.24 54.06-.95h.52l.13-.5c.35-1.24 1.6-4.62 3.24-5.36a2.58 2.58 0 0 0 1.92-.79 1.81 1.81 0 0 0 .35-1.47zm-6.75 6.77l-2.19.07a2.53 2.53 0 0 0 .23-.48 7.33 7.33 0 0 1 2-3.23c.82-.81-.24 0-.24 0a7.27 7.27 0 0 0-2.17 3.42 1.52 1.52 0 0 1-.15.34l-1.64.05a2.37 2.37 0 0 0 .21-.49 7.53 7.53 0 0 1 1.93-3.23c.82-.81-.29 0-.29 0a7.27 7.27 0 0 0-2.12 3.37 1.6 1.6 0 0 1-.15.35l-2.29.07a4 4 0 0 0 .2-.43 8.24 8.24 0 0 1 1.78-3.22c.77-.85-.35-.09-.35-.09a8.48 8.48 0 0 0-2.11 3.48 1.81 1.81 0 0 1-.12.28l-2.84.08a1.75 1.75 0 0 0 .11-.33 8.66 8.66 0 0 1 1.8-3.51c.23-.55-.47-.06-.47-.06a6.7 6.7 0 0 0-2.16 3.72.6.6 0 0 1-.08.2l-3.45.09a10 10 0 0 1 1.55-3.54s.39-.7-.08-.53c0 0-1 0-2.24 3.59a2.55 2.55 0 0 1-.17.52l-4 .09a2.35 2.35 0 0 0 .11-.52 7.41 7.41 0 0 1 1.4-3.24c.15-.41-.16-.42-.16-.42a1 1 0 0 0-.74.39 10.14 10.14 0 0 0-1.47 3.5 1.17 1.17 0 0 1-.11.3l-4.45.09a2 2 0 0 0 .09-.39 10.43 10.43 0 0 1 1.11-3.35c.09-.3 0-.35 0-.35-.5-.41-1.11.41-1.11.41a14.35 14.35 0 0 0-1.13 3.55v.15l-4.87.08c.06-.24.1-.49.1-.49a30.79 30.79 0 0 1 .78-3.08c.23-.65-.15-.66-.15-.66-.6-.17-1 .62-1 .62a26.86 26.86 0 0 0-.85 3.37 1.63 1.63 0 0 1-.07.26l-5.09.02v-.3a20.59 20.59 0 0 1 .57-3.36c.11-.35-.12-.47-.12-.47-.41-.45-.86.15-.86.15-.59.57-.83 3.47-.83 3.47s-.05.33-.09.53h-5.25v-.17l.25-3.3c.15-.84-.47-.84-.47-.84-.6-.09-.84.89-.84.89l-.3 3.43h-5.43l.05-3.71a.55.55 0 0 0-.6-.6c-.6-.09-.69.63-.69.63l-.06 3.68h-5.85l-.3-3.45s-.24-1-.85-.89c0 0-.62 0-.47.84l.26 3.3v.19h-5.25a3.75 3.75 0 0 1-.09-.56s-.24-2.9-.83-3.47c0 0-.46-.6-.86-.15 0 0-.23.12-.12.47a21.92 21.92 0 0 1 .57 3.36 2.23 2.23 0 0 0 0 .34l-5-.01a2 2 0 0 1-.08-.31 26.86 26.86 0 0 0-.85-3.37s-.39-.79-1-.62c0 0-.38 0-.15.66a29.63 29.63 0 0 1 .79 3.08 5.18 5.18 0 0 0 .11.55l-4.86-.07a.81.81 0 0 1-.07-.22 14.35 14.35 0 0 0-1.13-3.55s-.61-.82-1.11-.41c0 0-.07 0 0 .35a10.43 10.43 0 0 1 1.11 3.35 1.87 1.87 0 0 0 .11.46l-4.44-.09a1.42 1.42 0 0 1-.15-.37A10 10 0 0 0 25.52 53s-.34-.44-.74-.39c0 0-.32 0-.16.42A7.33 7.33 0 0 1 26 56.21a2.51 2.51 0 0 0 .14.59l-4-.09a3.23 3.23 0 0 1-.21-.59c-1.18-3.54-2.24-3.59-2.24-3.59-.47-.17-.08.53-.08.53a9.76 9.76 0 0 1 1.55 3.54v.08l-3.46-.09a.9.9 0 0 1-.11-.27 6.73 6.73 0 0 0-2.09-3.72s-.7-.49-.48.06a8.6 8.6 0 0 1 1.81 3.51 1.45 1.45 0 0 0 .14.39l-2.85-.09a1.42 1.42 0 0 1-.14-.33 8.48 8.48 0 0 0-2.11-3.48s-1.12-.76-.35.09A8.24 8.24 0 0 1 13.3 56a2.53 2.53 0 0 0 .23.48l-2.3-.08a1.76 1.76 0 0 1-.18-.39 7.27 7.27 0 0 0-2.17-3.42s-1.11-.78-.29 0a7.53 7.53 0 0 1 1.93 3.23 2.28 2.28 0 0 0 .24.53l-1.65-.06a1.79 1.79 0 0 1-.11-.37 7.27 7.27 0 0 0-2.22-3.42s-1.06-.77-.24 0a7.36 7.36 0 0 1 2 3.23 2.49 2.49 0 0 0 .25.5l-2.13-.09a14.18 14.18 0 0 0-2.42-4.45c10.53.3 25.67.4 41.36.4 28.56 0 58.82-.33 65.95-.42a14.36 14.36 0 0 0-2.26 4.51zm5.32-6.18c-.09.11-.41.35-1.43.3-.78 0-78.67 1-110.14 0h-.11a1.87 1.87 0 0 1-1.38-.3 1 1 0 0 1-.05-.81.31.31 0 0 0 0-.08C1.53 48.77 6.69 12.52 40.61 3c.14 0 14.84-3.59 34.94 0a48 48 0 0 1 16.85 8.34c8.13 6.09 18.6 17.66 22.26 38.33a.43.43 0 0 1-.09.33z"/>
</svg>