<svg xmlns="http://www.w3.org/2000/svg" width="110.51" height="58.96" viewBox="0 0 110.51 58.96"><defs><style>.cls-1{fill:#fff;}</style></defs><g id="Layer_2" data-name="Layer 2"><g id="Layer_1-2" data-name="Layer 1"><path class="cls-1" d="M100.77,9a9.06,9.06,0,0,0-2.54-2.52.68.68,0,0,0-.7,0,.58.58,0,0,0-.19.19V4.79A4.8,4.8,0,0,0,92.55,0H17.36a4.8,4.8,0,0,0-4.79,4.79v1.6a.27.27,0,0,1-.09,0C11.29,6.63,10.07,8.45,9.72,9-.73,26,0,48.15,0,48.4.92,58.69,9.3,59,9.71,59h0c5-.63,8.73-3.7,10.9-8.86a24.76,24.76,0,0,0,1.74-7H88.15a24.3,24.3,0,0,0,1.73,7c2.17,5.16,5.94,8.23,11,8.87.09,0,8.7-.12,9.62-10.59C110.5,48.15,111.23,26,100.77,9Zm2,6.83a78.6,78.6,0,0,1,6,24.73c-2-.77-3.16-4.88-3.45-6.5C104.22,29,102,18.31,102,18.14c-.33-1.08.75-2.29.77-2.31ZM14,4.79A3.39,3.39,0,0,1,17.36,1.4H92.55a3.39,3.39,0,0,1,3.39,3.39v6.82a.69.69,0,0,0-.25.52V38.38a3.68,3.68,0,0,1-.89,2.49,3.06,3.06,0,0,1-1.57.8H17.66l-.08,0a3.38,3.38,0,0,1-1.91-1,3.62,3.62,0,0,1-.86-2.39V12.13a.69.69,0,0,0-.65-.69c-.08,0-.17-.12-.25-.28a.82.82,0,0,0,.06-.28Zm-6.23,11a2.89,2.89,0,0,1,.75,2.37c0,.11-2.2,10.81-3.35,15.92C5,35.71,4,39.84,1.71,40.57a78.32,78.32,0,0,1,6-24.75ZM19.32,49.58c-2,4.73-5.29,7.41-9.69,8-.3,0-7.42-.15-8.22-9.25,0-.07-.08-2.49.18-6.28h.13c4-.78,4.78-7.45,4.8-7.66,1.14-5.05,3.32-15.77,3.32-15.81.57-1.86-1-3.6-1.07-3.67a.68.68,0,0,0-.51-.22,51.8,51.8,0,0,1,2.65-4.91,9.15,9.15,0,0,1,1-1.34c.08,1.51.39,3.56,1.47,4.22V38.3a5,5,0,0,0,1.22,3.37,5.19,5.19,0,0,0,3.85,1.51h2.46A23.75,23.75,0,0,1,19.32,49.58Zm89.78-1.3c-.81,9.13-7.92,9.27-8.14,9.28-4.49-.57-7.77-3.25-9.77-8a23,23,0,0,1-1.62-6.4H92a7.24,7.24,0,0,0,1.35-.11h.15a.73.73,0,0,0,.39-.13,4.2,4.2,0,0,0,1.92-1.11,5,5,0,0,0,1.27-3.49V12.63C98.15,12,98.47,10,98.56,8.5a10.19,10.19,0,0,1,1,1.24,52,52,0,0,1,2.65,4.92.66.66,0,0,0-.5.22c-.07.07-1.65,1.81-1.09,3.6,0,.11,2.2,10.83,3.33,15.85.12.7,1.34,6.91,4.79,7.68l.14,0C109.17,45.81,109.1,48.22,109.1,48.28Z"/><path class="cls-1" d="M18.86,39.81H90.47a3.39,3.39,0,0,0,3.38-3.39V6.3a3.39,3.39,0,0,0-3.38-3.38H18.86A3.39,3.39,0,0,0,15.47,6.3V36.42A3.39,3.39,0,0,0,18.86,39.81Zm-2-25.95H18.1a1,1,0,0,1,1,1v13a1,1,0,0,1-1,1H16.88Zm2-9.54H90.47a2,2,0,0,1,2,2V36.42a2,2,0,0,1-2,2H18.86a2,2,0,0,1-2-2V30.26H18.1a2.43,2.43,0,0,0,2.43-2.42V14.89a2.43,2.43,0,0,0-2.43-2.43H16.88V6.3A2,2,0,0,1,18.86,4.32Z"/></g></g></svg>